M48
; DRILL file {KiCad (5.1.0-0)} date Wednesday, April 10, 2019 at 10:04:30 PM
; FORMAT={-:-/ absolute / inch / decimal}
; #@! TF.CreationDate,2019-04-10T22:04:30-07:00
; #@! TF.GenerationSoftware,Kicad,Pcbnew,(5.1.0-0)
; #@! TF.FileFunction,Plated,1,2,PTH
FMAT,2
INCH
T1C0.0200
T2C0.0315
T3C0.0354
T4C0.0394
T5C0.0433
%
G90
G05
T1
X0.125Y-2.775
X0.125Y-3.275
X0.625Y-1.175
X0.675Y-2.35
X0.7392Y-2.2389
X0.75Y-1.175
X0.7873Y-2.2934
X0.8Y-2.375
X0.8Y-2.775
X0.9007Y-2.4733
X1.138Y-2.9291
X1.1891Y-3.3185
X1.32Y-2.28
X1.32Y-2.38
X1.4075Y-3.0171
X1.4159Y-2.9135
X1.7357Y-3.2533
X1.7497Y-2.7253
X1.9304Y-3.4286
X1.9306Y-1.8482
X1.975Y-1.9
X2.05Y-2.625
X2.1Y-2.875
X2.125Y-1.05
X2.2268Y-1.2232
X2.2732Y-1.7123
X2.28Y-1.12
X2.3118Y-1.6407
X2.3962Y-1.6337
X2.45Y-1.1
X2.525Y-0.95
X2.525Y-2.9
X2.525Y-3.4
X2.5498Y-2.3048
X2.6Y-1.175
X2.625Y-3.375
X2.65Y-1.075
X2.7Y-3.15
X2.875Y-1.5
X2.94Y-2.98
X3.34Y-3.52
T2
X1.45Y-0.475
X1.5484Y-0.475
X1.5Y0.1
X1.5Y-0.2
X1.025Y-0.975
X1.025Y-1.075
X1.025Y-1.175
X-0.125Y-1.975
X-0.125Y-2.075
X-0.125Y-2.175
X-0.125Y-2.275
X-0.125Y-2.475
X-0.125Y-2.575
X-0.125Y-2.675
X-0.125Y-2.775
X-0.125Y-2.875
X-0.125Y-2.975
X-0.125Y-3.075
X-0.125Y-3.175
X-0.125Y-3.275
X0.475Y-1.975
X0.475Y-2.075
X0.475Y-2.175
X0.475Y-2.275
X0.475Y-2.375
X0.475Y-2.475
X0.475Y-2.575
X0.475Y-2.675
X0.475Y-2.775
X0.475Y-2.875
X0.475Y-2.975
X0.475Y-3.075
X0.475Y-3.175
X0.475Y-3.275
X1.025Y-1.275
X-0.125Y-2.375
X1.025Y-1.375
X1.025Y-1.475
X1.025Y-1.575
X1.025Y-1.675
X1.025Y-1.775
X1.025Y-1.875
X1.025Y-1.975
X1.025Y-2.075
X1.025Y-2.175
X1.025Y-2.275
X1.025Y-2.375
X1.025Y-2.475
X1.025Y-2.575
X1.025Y-2.675
X1.025Y-2.775
X1.025Y-2.875
X1.025Y-2.975
X1.025Y-3.075
X1.025Y-3.175
X1.025Y-3.275
X1.625Y-0.975
X1.625Y-1.075
X1.625Y-1.175
X1.625Y-1.275
X1.625Y-1.375
X1.625Y-1.475
X1.625Y-1.575
X1.625Y-1.675
X1.625Y-1.775
X1.625Y-1.875
X1.625Y-1.975
X1.625Y-2.075
X1.625Y-2.175
X1.625Y-2.275
X1.625Y-2.375
X1.625Y-2.475
X1.625Y-2.575
X1.625Y-2.675
X1.625Y-2.775
X1.625Y-2.875
X1.625Y-2.975
X1.625Y-3.075
X1.625Y-3.175
X1.625Y-3.275
X2.0427Y-1.3612
X2.2348Y-1.3612
X1.275Y-0.8
X1.3734Y-0.8
X2.125Y-0.075
X2.125Y-0.175
X2.125Y-0.275
X2.125Y-0.375
X2.125Y-0.475
X2.125Y-0.575
X2.125Y-0.675
X2.125Y-0.775
X2.125Y-0.875
X2.125Y-0.975
X2.425Y-0.075
X2.425Y-0.175
X2.425Y-0.275
X2.425Y-0.375
X2.425Y-0.475
X2.425Y-0.575
X2.425Y-0.675
X2.425Y-0.775
X2.425Y-0.875
X2.425Y-0.975
X0.1266Y-1.8
X0.225Y-1.8
X2.625Y-1.375
X2.625Y-1.475
X0.5281Y0.026
X0.5281Y-0.1
X0.6266Y0.026
X0.6266Y-0.1
X0.725Y0.026
X0.725Y-0.1
X2.625Y-1.575
X2.625Y-1.675
X2.625Y-1.775
X2.625Y-1.875
X2.625Y-1.975
X2.625Y-2.075
X2.625Y-2.175
X2.625Y-2.275
X2.625Y-2.375
X2.625Y-2.475
X2.625Y-2.575
X2.625Y-2.675
X2.625Y-2.775
X2.625Y-2.875
X2.625Y-2.975
X2.625Y-3.075
X2.625Y-3.175
X2.625Y-3.275
X3.225Y-1.375
X3.225Y-1.475
X3.225Y-1.575
X3.225Y-1.675
X3.225Y-1.775
X3.225Y-1.875
X3.225Y-1.975
X3.225Y-2.075
X3.225Y-2.175
X3.225Y-2.275
X3.225Y-2.375
X3.225Y-2.475
X3.225Y-2.575
X3.225Y-2.675
X3.225Y-2.775
X3.225Y-2.875
X3.225Y-2.975
X3.225Y-3.075
X3.225Y-3.175
X3.225Y-3.275
X1.8Y-0.175
X0.575Y-0.5
X0.6734Y-0.5
X1.8Y-0.275
X1.8Y-0.375
X1.8Y-0.475
X1.8Y-0.575
X1.8Y-0.675
X1.8Y-0.775
X2.2266Y0.125
X2.325Y0.125
X2.85Y0.125
X2.9484Y0.125
X2.225Y-1.575
X2.3234Y-1.575
X2.0766Y-1.8
X2.175Y-1.8
X1.825Y-1.975
X1.825Y-2.075
X1.825Y-2.175
X1.825Y-2.275
X1.825Y-2.375
X1.825Y-2.475
X1.825Y-2.575
X1.825Y-2.675
X1.825Y-2.775
X1.825Y-2.875
X1.825Y-2.975
X1.825Y-3.075
X1.825Y-3.175
X1.825Y-3.275
X2.425Y-1.975
X2.425Y-2.075
X2.425Y-2.175
X2.425Y-2.275
X2.425Y-2.375
X2.425Y-2.475
X2.425Y-2.575
X2.425Y-2.675
X2.425Y-2.775
X2.425Y-2.875
X2.425Y-2.975
X2.425Y-3.075
X2.425Y-3.175
X2.425Y-3.275
X2.8766Y-1.15
X2.975Y-1.15
X1.9516Y-1.575
X0.325Y0.025
X0.325Y-0.375
X2.05Y-1.575
X2.75Y-0.075
X2.75Y-0.175
X2.75Y-0.275
X2.75Y-0.375
X3.05Y-0.075
X3.05Y-0.175
X3.05Y-0.275
X3.05Y-0.375
T3
X1.75Y0.1
X1.85Y0.1
T4
X0.5469Y-0.9
X3.45Y-1.5
X3.45Y-1.6
X3.45Y-1.8
X3.45Y-1.9
X3.45Y-2.0
X0.6469Y-0.9
X3.45Y-1.7
X0.7469Y-0.9
X0.075Y-3.475
X0.175Y-3.475
X0.275Y-3.475
X0.375Y-3.475
X0.475Y-3.475
X0.575Y-3.475
X0.675Y-3.475
X0.775Y-3.475
X0.875Y-3.475
X0.975Y-3.475
X3.3Y-0.775
X3.3Y-0.875
X-0.075Y-0.625
X-0.075Y-1.225
X0.225Y-0.625
X0.225Y-1.225
X3.45Y-0.775
X3.45Y-0.875
X3.45Y-0.975
X3.45Y-1.075
X3.45Y-1.175
X3.45Y-1.275
X1.075Y-3.475
X1.175Y-3.475
X1.275Y-3.475
X1.375Y-3.475
X1.475Y-3.475
X1.575Y-3.475
X1.675Y-3.475
X1.775Y-3.475
X1.875Y-3.475
X1.975Y-3.475
X3.45Y-2.55
X3.45Y-2.65
X3.45Y-2.75
X3.45Y-2.85
X3.45Y-2.95
X3.45Y-3.05
X3.45Y-3.15
X3.45Y-3.25
X3.45Y-2.2
X3.45Y-2.3
X-0.075Y-0.625
X-0.075Y-0.925
X0.225Y-0.625
X0.225Y-0.925
X2.15Y-3.475
X2.25Y-3.475
X2.35Y-3.475
X2.45Y-3.475
X2.55Y-3.475
X2.65Y-3.475
X2.75Y-3.475
X2.85Y-3.475
X3.3Y-0.05
X3.3Y-0.15
X0.5469Y-1.05
X0.6469Y-1.05
X0.7469Y-1.05
X3.45Y-0.05
X3.45Y-0.15
X3.45Y-0.25
X3.45Y-0.35
X3.45Y-0.45
X3.45Y-0.55
T5
X2.775Y-0.65
X2.775Y-0.8272
X3.0309Y-0.65
X3.0309Y-0.8272
X0.975Y-0.6
X1.075Y-0.6
X1.175Y-0.6
T4
G00X-0.0862Y-0.1356
M15
G01X-0.0862Y-0.2144
M16
G05
G00X-0.0075Y-0.36
M15
G01X0.0713Y-0.36
M16
G05
G00X0.15Y-0.1356
M15
G01X0.15Y-0.2144
M16
G05
T0
M30
