G04 #@! TF.GenerationSoftware,KiCad,Pcbnew,(5.1.0-0)*
G04 #@! TF.CreationDate,2019-04-10T22:03:50-07:00*
G04 #@! TF.ProjectId,mini68k,6d696e69-3638-46b2-9e6b-696361645f70,v02*
G04 #@! TF.SameCoordinates,PX5c0c740PY43d3480*
G04 #@! TF.FileFunction,Legend,Top*
G04 #@! TF.FilePolarity,Positive*
%FSLAX46Y46*%
G04 Gerber Fmt 4.6, Leading zero omitted, Abs format (unit mm)*
G04 Created by KiCad (PCBNEW (5.1.0-0)) date 2019-04-10 22:03:50*
%MOMM*%
%LPD*%
G04 APERTURE LIST*
%ADD10C,0.300000*%
%ADD11C,0.250000*%
%ADD12C,0.120000*%
%ADD13C,0.150000*%
G04 APERTURE END LIST*
D10*
X72818571Y-86784571D02*
X71961428Y-86784571D01*
X72390000Y-86784571D02*
X72390000Y-85284571D01*
X72247142Y-85498857D01*
X72104285Y-85641714D01*
X71961428Y-85713142D01*
X2206571Y-86276571D02*
X1349428Y-86276571D01*
X1778000Y-86276571D02*
X1778000Y-84776571D01*
X1635142Y-84990857D01*
X1492285Y-85133714D01*
X1349428Y-85205142D01*
D11*
X84542380Y-83112619D02*
X85256666Y-83112619D01*
X85399523Y-83160238D01*
X85494761Y-83255476D01*
X85542380Y-83398333D01*
X85542380Y-83493571D01*
X84542380Y-82160238D02*
X84542380Y-82636428D01*
X85018571Y-82684047D01*
X84970952Y-82636428D01*
X84923333Y-82541190D01*
X84923333Y-82303095D01*
X84970952Y-82207857D01*
X85018571Y-82160238D01*
X85113809Y-82112619D01*
X85351904Y-82112619D01*
X85447142Y-82160238D01*
X85494761Y-82207857D01*
X85542380Y-82303095D01*
X85542380Y-82541190D01*
X85494761Y-82636428D01*
X85447142Y-82684047D01*
X85447142Y-81684047D02*
X85494761Y-81636428D01*
X85542380Y-81684047D01*
X85494761Y-81731666D01*
X85447142Y-81684047D01*
X85542380Y-81684047D01*
X84923333Y-81684047D02*
X84970952Y-81636428D01*
X85018571Y-81684047D01*
X84970952Y-81731666D01*
X84923333Y-81684047D01*
X85018571Y-81684047D01*
X84875714Y-80017380D02*
X85542380Y-80017380D01*
X84875714Y-80445952D02*
X85399523Y-80445952D01*
X85494761Y-80398333D01*
X85542380Y-80303095D01*
X85542380Y-80160238D01*
X85494761Y-80065000D01*
X85447142Y-80017380D01*
X85494761Y-79588809D02*
X85542380Y-79493571D01*
X85542380Y-79303095D01*
X85494761Y-79207857D01*
X85399523Y-79160238D01*
X85351904Y-79160238D01*
X85256666Y-79207857D01*
X85209047Y-79303095D01*
X85209047Y-79445952D01*
X85161428Y-79541190D01*
X85066190Y-79588809D01*
X85018571Y-79588809D01*
X84923333Y-79541190D01*
X84875714Y-79445952D01*
X84875714Y-79303095D01*
X84923333Y-79207857D01*
X85494761Y-78350714D02*
X85542380Y-78445952D01*
X85542380Y-78636428D01*
X85494761Y-78731666D01*
X85399523Y-78779285D01*
X85018571Y-78779285D01*
X84923333Y-78731666D01*
X84875714Y-78636428D01*
X84875714Y-78445952D01*
X84923333Y-78350714D01*
X85018571Y-78303095D01*
X85113809Y-78303095D01*
X85209047Y-78779285D01*
X85494761Y-77160238D02*
X85542380Y-77065000D01*
X85542380Y-76874523D01*
X85494761Y-76779285D01*
X85399523Y-76731666D01*
X85351904Y-76731666D01*
X85256666Y-76779285D01*
X85209047Y-76874523D01*
X85209047Y-77017380D01*
X85161428Y-77112619D01*
X85066190Y-77160238D01*
X85018571Y-77160238D01*
X84923333Y-77112619D01*
X84875714Y-77017380D01*
X84875714Y-76874523D01*
X84923333Y-76779285D01*
X84875714Y-76398333D02*
X85542380Y-76160238D01*
X84875714Y-75922142D02*
X85542380Y-76160238D01*
X85780476Y-76255476D01*
X85828095Y-76303095D01*
X85875714Y-76398333D01*
X85494761Y-75588809D02*
X85542380Y-75493571D01*
X85542380Y-75303095D01*
X85494761Y-75207857D01*
X85399523Y-75160238D01*
X85351904Y-75160238D01*
X85256666Y-75207857D01*
X85209047Y-75303095D01*
X85209047Y-75445952D01*
X85161428Y-75541190D01*
X85066190Y-75588809D01*
X85018571Y-75588809D01*
X84923333Y-75541190D01*
X84875714Y-75445952D01*
X84875714Y-75303095D01*
X84923333Y-75207857D01*
X84875714Y-74874523D02*
X84875714Y-74493571D01*
X84542380Y-74731666D02*
X85399523Y-74731666D01*
X85494761Y-74684047D01*
X85542380Y-74588809D01*
X85542380Y-74493571D01*
X85494761Y-73779285D02*
X85542380Y-73874523D01*
X85542380Y-74065000D01*
X85494761Y-74160238D01*
X85399523Y-74207857D01*
X85018571Y-74207857D01*
X84923333Y-74160238D01*
X84875714Y-74065000D01*
X84875714Y-73874523D01*
X84923333Y-73779285D01*
X85018571Y-73731666D01*
X85113809Y-73731666D01*
X85209047Y-74207857D01*
X85542380Y-73303095D02*
X84875714Y-73303095D01*
X84970952Y-73303095D02*
X84923333Y-73255476D01*
X84875714Y-73160238D01*
X84875714Y-73017380D01*
X84923333Y-72922142D01*
X85018571Y-72874523D01*
X85542380Y-72874523D01*
X85018571Y-72874523D02*
X84923333Y-72826904D01*
X84875714Y-72731666D01*
X84875714Y-72588809D01*
X84923333Y-72493571D01*
X85018571Y-72445952D01*
X85542380Y-72445952D01*
X85494761Y-70779285D02*
X85542380Y-70874523D01*
X85542380Y-71065000D01*
X85494761Y-71160238D01*
X85447142Y-71207857D01*
X85351904Y-71255476D01*
X85066190Y-71255476D01*
X84970952Y-71207857D01*
X84923333Y-71160238D01*
X84875714Y-71065000D01*
X84875714Y-70874523D01*
X84923333Y-70779285D01*
X85542380Y-70207857D02*
X85494761Y-70303095D01*
X85399523Y-70350714D01*
X84542380Y-70350714D01*
X85542380Y-69684047D02*
X85494761Y-69779285D01*
X85447142Y-69826904D01*
X85351904Y-69874523D01*
X85066190Y-69874523D01*
X84970952Y-69826904D01*
X84923333Y-69779285D01*
X84875714Y-69684047D01*
X84875714Y-69541190D01*
X84923333Y-69445952D01*
X84970952Y-69398333D01*
X85066190Y-69350714D01*
X85351904Y-69350714D01*
X85447142Y-69398333D01*
X85494761Y-69445952D01*
X85542380Y-69541190D01*
X85542380Y-69684047D01*
X85494761Y-68493571D02*
X85542380Y-68588809D01*
X85542380Y-68779285D01*
X85494761Y-68874523D01*
X85447142Y-68922142D01*
X85351904Y-68969761D01*
X85066190Y-68969761D01*
X84970952Y-68922142D01*
X84923333Y-68874523D01*
X84875714Y-68779285D01*
X84875714Y-68588809D01*
X84923333Y-68493571D01*
X85542380Y-68065000D02*
X84542380Y-68065000D01*
X85161428Y-67969761D02*
X85542380Y-67684047D01*
X84875714Y-67684047D02*
X85256666Y-68065000D01*
X89626785Y-13470000D02*
X89531547Y-13422380D01*
X89388690Y-13422380D01*
X89245833Y-13470000D01*
X89150595Y-13565238D01*
X89102976Y-13660476D01*
X89055357Y-13850952D01*
X89055357Y-13993809D01*
X89102976Y-14184285D01*
X89150595Y-14279523D01*
X89245833Y-14374761D01*
X89388690Y-14422380D01*
X89483928Y-14422380D01*
X89626785Y-14374761D01*
X89674404Y-14327142D01*
X89674404Y-13993809D01*
X89483928Y-13993809D01*
X90102976Y-14422380D02*
X90102976Y-13422380D01*
X90674404Y-14422380D01*
X90674404Y-13422380D01*
X91150595Y-14422380D02*
X91150595Y-13422380D01*
X91388690Y-13422380D01*
X91531547Y-13470000D01*
X91626785Y-13565238D01*
X91674404Y-13660476D01*
X91722023Y-13850952D01*
X91722023Y-13993809D01*
X91674404Y-14184285D01*
X91626785Y-14279523D01*
X91531547Y-14374761D01*
X91388690Y-14422380D01*
X91150595Y-14422380D01*
X90003333Y-6802380D02*
X89670000Y-6326190D01*
X89431904Y-6802380D02*
X89431904Y-5802380D01*
X89812857Y-5802380D01*
X89908095Y-5850000D01*
X89955714Y-5897619D01*
X90003333Y-5992857D01*
X90003333Y-6135714D01*
X89955714Y-6230952D01*
X89908095Y-6278571D01*
X89812857Y-6326190D01*
X89431904Y-6326190D01*
X90336666Y-5802380D02*
X91003333Y-6802380D01*
X91003333Y-5802380D02*
X90336666Y-6802380D01*
X89408095Y-3262380D02*
X89979523Y-3262380D01*
X89693809Y-4262380D02*
X89693809Y-3262380D01*
X90217619Y-3262380D02*
X90884285Y-4262380D01*
X90884285Y-3262380D02*
X90217619Y-4262380D01*
X89626785Y-31885000D02*
X89531547Y-31837380D01*
X89388690Y-31837380D01*
X89245833Y-31885000D01*
X89150595Y-31980238D01*
X89102976Y-32075476D01*
X89055357Y-32265952D01*
X89055357Y-32408809D01*
X89102976Y-32599285D01*
X89150595Y-32694523D01*
X89245833Y-32789761D01*
X89388690Y-32837380D01*
X89483928Y-32837380D01*
X89626785Y-32789761D01*
X89674404Y-32742142D01*
X89674404Y-32408809D01*
X89483928Y-32408809D01*
X90102976Y-32837380D02*
X90102976Y-31837380D01*
X90674404Y-32837380D01*
X90674404Y-31837380D01*
X91150595Y-32837380D02*
X91150595Y-31837380D01*
X91388690Y-31837380D01*
X91531547Y-31885000D01*
X91626785Y-31980238D01*
X91674404Y-32075476D01*
X91722023Y-32265952D01*
X91722023Y-32408809D01*
X91674404Y-32599285D01*
X91626785Y-32694523D01*
X91531547Y-32789761D01*
X91388690Y-32837380D01*
X91150595Y-32837380D01*
X90003333Y-25217380D02*
X89670000Y-24741190D01*
X89431904Y-25217380D02*
X89431904Y-24217380D01*
X89812857Y-24217380D01*
X89908095Y-24265000D01*
X89955714Y-24312619D01*
X90003333Y-24407857D01*
X90003333Y-24550714D01*
X89955714Y-24645952D01*
X89908095Y-24693571D01*
X89812857Y-24741190D01*
X89431904Y-24741190D01*
X90336666Y-24217380D02*
X91003333Y-25217380D01*
X91003333Y-24217380D02*
X90336666Y-25217380D01*
X89408095Y-21677380D02*
X89979523Y-21677380D01*
X89693809Y-22677380D02*
X89693809Y-21677380D01*
X90217619Y-21677380D02*
X90884285Y-22677380D01*
X90884285Y-21677380D02*
X90217619Y-22677380D01*
D10*
X85518571Y-50843571D02*
X84661428Y-50843571D01*
X85090000Y-50843571D02*
X85090000Y-49343571D01*
X84947142Y-49557857D01*
X84804285Y-49700714D01*
X84661428Y-49772142D01*
X85518571Y-65448571D02*
X84661428Y-65448571D01*
X85090000Y-65448571D02*
X85090000Y-63948571D01*
X84947142Y-64162857D01*
X84804285Y-64305714D01*
X84661428Y-64377142D01*
D11*
X17087619Y-50290714D02*
X17040000Y-50243095D01*
X16992380Y-50147857D01*
X16992380Y-49909761D01*
X17040000Y-49814523D01*
X17087619Y-49766904D01*
X17182857Y-49719285D01*
X17278095Y-49719285D01*
X17420952Y-49766904D01*
X17992380Y-50338333D01*
X17992380Y-49719285D01*
X16992380Y-49385952D02*
X16992380Y-48719285D01*
X17992380Y-49147857D01*
X17087619Y-48385952D02*
X17040000Y-48338333D01*
X16992380Y-48243095D01*
X16992380Y-48005000D01*
X17040000Y-47909761D01*
X17087619Y-47862142D01*
X17182857Y-47814523D01*
X17278095Y-47814523D01*
X17420952Y-47862142D01*
X17992380Y-48433571D01*
X17992380Y-47814523D01*
X16992380Y-46909761D02*
X16992380Y-47385952D01*
X17468571Y-47433571D01*
X17420952Y-47385952D01*
X17373333Y-47290714D01*
X17373333Y-47052619D01*
X17420952Y-46957380D01*
X17468571Y-46909761D01*
X17563809Y-46862142D01*
X17801904Y-46862142D01*
X17897142Y-46909761D01*
X17944761Y-46957380D01*
X17992380Y-47052619D01*
X17992380Y-47290714D01*
X17944761Y-47385952D01*
X17897142Y-47433571D01*
X16992380Y-46005000D02*
X16992380Y-46195476D01*
X17040000Y-46290714D01*
X17087619Y-46338333D01*
X17230476Y-46433571D01*
X17420952Y-46481190D01*
X17801904Y-46481190D01*
X17897142Y-46433571D01*
X17944761Y-46385952D01*
X17992380Y-46290714D01*
X17992380Y-46100238D01*
X17944761Y-46005000D01*
X17897142Y-45957380D01*
X17801904Y-45909761D01*
X17563809Y-45909761D01*
X17468571Y-45957380D01*
X17420952Y-46005000D01*
X17373333Y-46100238D01*
X17373333Y-46290714D01*
X17420952Y-46385952D01*
X17468571Y-46433571D01*
X17563809Y-46481190D01*
X17897142Y-45481190D02*
X17944761Y-45433571D01*
X17992380Y-45481190D01*
X17944761Y-45528809D01*
X17897142Y-45481190D01*
X17992380Y-45481190D01*
X17373333Y-45481190D02*
X17420952Y-45433571D01*
X17468571Y-45481190D01*
X17420952Y-45528809D01*
X17373333Y-45481190D01*
X17468571Y-45481190D01*
X16992380Y-43957380D02*
X17706666Y-43957380D01*
X17849523Y-44005000D01*
X17944761Y-44100238D01*
X17992380Y-44243095D01*
X17992380Y-44338333D01*
X17992380Y-43481190D02*
X16992380Y-43481190D01*
X16992380Y-43100238D01*
X17040000Y-43005000D01*
X17087619Y-42957380D01*
X17182857Y-42909761D01*
X17325714Y-42909761D01*
X17420952Y-42957380D01*
X17468571Y-43005000D01*
X17516190Y-43100238D01*
X17516190Y-43481190D01*
X16992380Y-42576428D02*
X16992380Y-41957380D01*
X17373333Y-42290714D01*
X17373333Y-42147857D01*
X17420952Y-42052619D01*
X17468571Y-42005000D01*
X17563809Y-41957380D01*
X17801904Y-41957380D01*
X17897142Y-42005000D01*
X17944761Y-42052619D01*
X17992380Y-42147857D01*
X17992380Y-42433571D01*
X17944761Y-42528809D01*
X17897142Y-42576428D01*
X17897142Y-41528809D02*
X17944761Y-41481190D01*
X17992380Y-41528809D01*
X17944761Y-41576428D01*
X17897142Y-41528809D01*
X17992380Y-41528809D01*
X17373333Y-41528809D02*
X17420952Y-41481190D01*
X17468571Y-41528809D01*
X17420952Y-41576428D01*
X17373333Y-41528809D01*
X17468571Y-41528809D01*
X17087619Y-40338333D02*
X17040000Y-40290714D01*
X16992380Y-40195476D01*
X16992380Y-39957380D01*
X17040000Y-39862142D01*
X17087619Y-39814523D01*
X17182857Y-39766904D01*
X17278095Y-39766904D01*
X17420952Y-39814523D01*
X17992380Y-40385952D01*
X17992380Y-39766904D01*
X17611428Y-39338333D02*
X17611428Y-38576428D01*
X16992380Y-38195476D02*
X16992380Y-37576428D01*
X17373333Y-37909761D01*
X17373333Y-37766904D01*
X17420952Y-37671666D01*
X17468571Y-37624047D01*
X17563809Y-37576428D01*
X17801904Y-37576428D01*
X17897142Y-37624047D01*
X17944761Y-37671666D01*
X17992380Y-37766904D01*
X17992380Y-38052619D01*
X17944761Y-38147857D01*
X17897142Y-38195476D01*
X16992380Y-36100238D02*
X17706666Y-36100238D01*
X17849523Y-36147857D01*
X17944761Y-36243095D01*
X17992380Y-36385952D01*
X17992380Y-36481190D01*
X17992380Y-35624047D02*
X16992380Y-35624047D01*
X16992380Y-35243095D01*
X17040000Y-35147857D01*
X17087619Y-35100238D01*
X17182857Y-35052619D01*
X17325714Y-35052619D01*
X17420952Y-35100238D01*
X17468571Y-35147857D01*
X17516190Y-35243095D01*
X17516190Y-35624047D01*
X17325714Y-34195476D02*
X17992380Y-34195476D01*
X16944761Y-34433571D02*
X17659047Y-34671666D01*
X17659047Y-34052619D01*
X17897142Y-33671666D02*
X17944761Y-33624047D01*
X17992380Y-33671666D01*
X17944761Y-33719285D01*
X17897142Y-33671666D01*
X17992380Y-33671666D01*
X17373333Y-33671666D02*
X17420952Y-33624047D01*
X17468571Y-33671666D01*
X17420952Y-33719285D01*
X17373333Y-33671666D01*
X17468571Y-33671666D01*
X17992380Y-31909761D02*
X17992380Y-32481190D01*
X17992380Y-32195476D02*
X16992380Y-32195476D01*
X17135238Y-32290714D01*
X17230476Y-32385952D01*
X17278095Y-32481190D01*
X17611428Y-31481190D02*
X17611428Y-30719285D01*
X17087619Y-30290714D02*
X17040000Y-30243095D01*
X16992380Y-30147857D01*
X16992380Y-29909761D01*
X17040000Y-29814523D01*
X17087619Y-29766904D01*
X17182857Y-29719285D01*
X17278095Y-29719285D01*
X17420952Y-29766904D01*
X17992380Y-30338333D01*
X17992380Y-29719285D01*
X18837619Y-50290714D02*
X18790000Y-50243095D01*
X18742380Y-50147857D01*
X18742380Y-49909761D01*
X18790000Y-49814523D01*
X18837619Y-49766904D01*
X18932857Y-49719285D01*
X19028095Y-49719285D01*
X19170952Y-49766904D01*
X19742380Y-50338333D01*
X19742380Y-49719285D01*
X19170952Y-49147857D02*
X19123333Y-49243095D01*
X19075714Y-49290714D01*
X18980476Y-49338333D01*
X18932857Y-49338333D01*
X18837619Y-49290714D01*
X18790000Y-49243095D01*
X18742380Y-49147857D01*
X18742380Y-48957380D01*
X18790000Y-48862142D01*
X18837619Y-48814523D01*
X18932857Y-48766904D01*
X18980476Y-48766904D01*
X19075714Y-48814523D01*
X19123333Y-48862142D01*
X19170952Y-48957380D01*
X19170952Y-49147857D01*
X19218571Y-49243095D01*
X19266190Y-49290714D01*
X19361428Y-49338333D01*
X19551904Y-49338333D01*
X19647142Y-49290714D01*
X19694761Y-49243095D01*
X19742380Y-49147857D01*
X19742380Y-48957380D01*
X19694761Y-48862142D01*
X19647142Y-48814523D01*
X19551904Y-48766904D01*
X19361428Y-48766904D01*
X19266190Y-48814523D01*
X19218571Y-48862142D01*
X19170952Y-48957380D01*
X18837619Y-48385952D02*
X18790000Y-48338333D01*
X18742380Y-48243095D01*
X18742380Y-48005000D01*
X18790000Y-47909761D01*
X18837619Y-47862142D01*
X18932857Y-47814523D01*
X19028095Y-47814523D01*
X19170952Y-47862142D01*
X19742380Y-48433571D01*
X19742380Y-47814523D01*
X18742380Y-46909761D02*
X18742380Y-47385952D01*
X19218571Y-47433571D01*
X19170952Y-47385952D01*
X19123333Y-47290714D01*
X19123333Y-47052619D01*
X19170952Y-46957380D01*
X19218571Y-46909761D01*
X19313809Y-46862142D01*
X19551904Y-46862142D01*
X19647142Y-46909761D01*
X19694761Y-46957380D01*
X19742380Y-47052619D01*
X19742380Y-47290714D01*
X19694761Y-47385952D01*
X19647142Y-47433571D01*
X18742380Y-46005000D02*
X18742380Y-46195476D01*
X18790000Y-46290714D01*
X18837619Y-46338333D01*
X18980476Y-46433571D01*
X19170952Y-46481190D01*
X19551904Y-46481190D01*
X19647142Y-46433571D01*
X19694761Y-46385952D01*
X19742380Y-46290714D01*
X19742380Y-46100238D01*
X19694761Y-46005000D01*
X19647142Y-45957380D01*
X19551904Y-45909761D01*
X19313809Y-45909761D01*
X19218571Y-45957380D01*
X19170952Y-46005000D01*
X19123333Y-46100238D01*
X19123333Y-46290714D01*
X19170952Y-46385952D01*
X19218571Y-46433571D01*
X19313809Y-46481190D01*
X19647142Y-45481190D02*
X19694761Y-45433571D01*
X19742380Y-45481190D01*
X19694761Y-45528809D01*
X19647142Y-45481190D01*
X19742380Y-45481190D01*
X19123333Y-45481190D02*
X19170952Y-45433571D01*
X19218571Y-45481190D01*
X19170952Y-45528809D01*
X19123333Y-45481190D01*
X19218571Y-45481190D01*
X18742380Y-43957380D02*
X19456666Y-43957380D01*
X19599523Y-44005000D01*
X19694761Y-44100238D01*
X19742380Y-44243095D01*
X19742380Y-44338333D01*
X19742380Y-43481190D02*
X18742380Y-43481190D01*
X18742380Y-43100238D01*
X18790000Y-43005000D01*
X18837619Y-42957380D01*
X18932857Y-42909761D01*
X19075714Y-42909761D01*
X19170952Y-42957380D01*
X19218571Y-43005000D01*
X19266190Y-43100238D01*
X19266190Y-43481190D01*
X18742380Y-42576428D02*
X18742380Y-41957380D01*
X19123333Y-42290714D01*
X19123333Y-42147857D01*
X19170952Y-42052619D01*
X19218571Y-42005000D01*
X19313809Y-41957380D01*
X19551904Y-41957380D01*
X19647142Y-42005000D01*
X19694761Y-42052619D01*
X19742380Y-42147857D01*
X19742380Y-42433571D01*
X19694761Y-42528809D01*
X19647142Y-42576428D01*
X19647142Y-41528809D02*
X19694761Y-41481190D01*
X19742380Y-41528809D01*
X19694761Y-41576428D01*
X19647142Y-41528809D01*
X19742380Y-41528809D01*
X19123333Y-41528809D02*
X19170952Y-41481190D01*
X19218571Y-41528809D01*
X19170952Y-41576428D01*
X19123333Y-41528809D01*
X19218571Y-41528809D01*
X19742380Y-39766904D02*
X19742380Y-40338333D01*
X19742380Y-40052619D02*
X18742380Y-40052619D01*
X18885238Y-40147857D01*
X18980476Y-40243095D01*
X19028095Y-40338333D01*
X19361428Y-39338333D02*
X19361428Y-38576428D01*
X18837619Y-38147857D02*
X18790000Y-38100238D01*
X18742380Y-38005000D01*
X18742380Y-37766904D01*
X18790000Y-37671666D01*
X18837619Y-37624047D01*
X18932857Y-37576428D01*
X19028095Y-37576428D01*
X19170952Y-37624047D01*
X19742380Y-38195476D01*
X19742380Y-37576428D01*
X18742380Y-36100238D02*
X19456666Y-36100238D01*
X19599523Y-36147857D01*
X19694761Y-36243095D01*
X19742380Y-36385952D01*
X19742380Y-36481190D01*
X19742380Y-35624047D02*
X18742380Y-35624047D01*
X18742380Y-35243095D01*
X18790000Y-35147857D01*
X18837619Y-35100238D01*
X18932857Y-35052619D01*
X19075714Y-35052619D01*
X19170952Y-35100238D01*
X19218571Y-35147857D01*
X19266190Y-35243095D01*
X19266190Y-35624047D01*
X19075714Y-34195476D02*
X19742380Y-34195476D01*
X18694761Y-34433571D02*
X19409047Y-34671666D01*
X19409047Y-34052619D01*
X19647142Y-33671666D02*
X19694761Y-33624047D01*
X19742380Y-33671666D01*
X19694761Y-33719285D01*
X19647142Y-33671666D01*
X19742380Y-33671666D01*
X19123333Y-33671666D02*
X19170952Y-33624047D01*
X19218571Y-33671666D01*
X19170952Y-33719285D01*
X19123333Y-33671666D01*
X19218571Y-33671666D01*
X18837619Y-32481190D02*
X18790000Y-32433571D01*
X18742380Y-32338333D01*
X18742380Y-32100238D01*
X18790000Y-32005000D01*
X18837619Y-31957380D01*
X18932857Y-31909761D01*
X19028095Y-31909761D01*
X19170952Y-31957380D01*
X19742380Y-32528809D01*
X19742380Y-31909761D01*
X19361428Y-31481190D02*
X19361428Y-30719285D01*
X18742380Y-30338333D02*
X18742380Y-29719285D01*
X19123333Y-30052619D01*
X19123333Y-29909761D01*
X19170952Y-29814523D01*
X19218571Y-29766904D01*
X19313809Y-29719285D01*
X19551904Y-29719285D01*
X19647142Y-29766904D01*
X19694761Y-29814523D01*
X19742380Y-29909761D01*
X19742380Y-30195476D01*
X19694761Y-30290714D01*
X19647142Y-30338333D01*
D10*
X14398571Y-20363571D02*
X13541428Y-20363571D01*
X13970000Y-20363571D02*
X13970000Y-18863571D01*
X13827142Y-19077857D01*
X13684285Y-19220714D01*
X13541428Y-19292142D01*
D12*
X73660000Y-86995000D02*
X73660000Y-88265000D01*
X72390000Y-86995000D02*
X73660000Y-86995000D01*
X54230000Y-89307929D02*
X54230000Y-89705000D01*
X54990000Y-89307929D02*
X54990000Y-89705000D01*
X54230000Y-98365000D02*
X54230000Y-92365000D01*
X54990000Y-98365000D02*
X54230000Y-98365000D01*
X54990000Y-92365000D02*
X54990000Y-98365000D01*
X55880000Y-89705000D02*
X55880000Y-92365000D01*
X56770000Y-89307929D02*
X56770000Y-89705000D01*
X57530000Y-89307929D02*
X57530000Y-89705000D01*
X56770000Y-98365000D02*
X56770000Y-92365000D01*
X57530000Y-98365000D02*
X56770000Y-98365000D01*
X57530000Y-92365000D02*
X57530000Y-98365000D01*
X58420000Y-89705000D02*
X58420000Y-92365000D01*
X59310000Y-89307929D02*
X59310000Y-89705000D01*
X60070000Y-89307929D02*
X60070000Y-89705000D01*
X59310000Y-98365000D02*
X59310000Y-92365000D01*
X60070000Y-98365000D02*
X59310000Y-98365000D01*
X60070000Y-92365000D02*
X60070000Y-98365000D01*
X60960000Y-89705000D02*
X60960000Y-92365000D01*
X61850000Y-89307929D02*
X61850000Y-89705000D01*
X62610000Y-89307929D02*
X62610000Y-89705000D01*
X61850000Y-98365000D02*
X61850000Y-92365000D01*
X62610000Y-98365000D02*
X61850000Y-98365000D01*
X62610000Y-92365000D02*
X62610000Y-98365000D01*
X63500000Y-89705000D02*
X63500000Y-92365000D01*
X64390000Y-89307929D02*
X64390000Y-89705000D01*
X65150000Y-89307929D02*
X65150000Y-89705000D01*
X64390000Y-98365000D02*
X64390000Y-92365000D01*
X65150000Y-98365000D02*
X64390000Y-98365000D01*
X65150000Y-92365000D02*
X65150000Y-98365000D01*
X66040000Y-89705000D02*
X66040000Y-92365000D01*
X66930000Y-89307929D02*
X66930000Y-89705000D01*
X67690000Y-89307929D02*
X67690000Y-89705000D01*
X66930000Y-98365000D02*
X66930000Y-92365000D01*
X67690000Y-98365000D02*
X66930000Y-98365000D01*
X67690000Y-92365000D02*
X67690000Y-98365000D01*
X68580000Y-89705000D02*
X68580000Y-92365000D01*
X69470000Y-89307929D02*
X69470000Y-89705000D01*
X70230000Y-89307929D02*
X70230000Y-89705000D01*
X69470000Y-98365000D02*
X69470000Y-92365000D01*
X70230000Y-98365000D02*
X69470000Y-98365000D01*
X70230000Y-92365000D02*
X70230000Y-98365000D01*
X71120000Y-89705000D02*
X71120000Y-92365000D01*
X72010000Y-89375000D02*
X72010000Y-89705000D01*
X72770000Y-89375000D02*
X72770000Y-89705000D01*
X72110000Y-92365000D02*
X72110000Y-98365000D01*
X72230000Y-92365000D02*
X72230000Y-98365000D01*
X72350000Y-92365000D02*
X72350000Y-98365000D01*
X72470000Y-92365000D02*
X72470000Y-98365000D01*
X72590000Y-92365000D02*
X72590000Y-98365000D01*
X72710000Y-92365000D02*
X72710000Y-98365000D01*
X72010000Y-98365000D02*
X72010000Y-92365000D01*
X72770000Y-98365000D02*
X72010000Y-98365000D01*
X72770000Y-92365000D02*
X72770000Y-98365000D01*
X73720000Y-92365000D02*
X73720000Y-89705000D01*
X53280000Y-92365000D02*
X73720000Y-92365000D01*
X53280000Y-89705000D02*
X53280000Y-92365000D01*
X73720000Y-89705000D02*
X53280000Y-89705000D01*
X86360000Y-36830000D02*
X87630000Y-36830000D01*
X86360000Y-38100000D02*
X86360000Y-36830000D01*
X88672929Y-51180000D02*
X89070000Y-51180000D01*
X88672929Y-50420000D02*
X89070000Y-50420000D01*
X97730000Y-51180000D02*
X91730000Y-51180000D01*
X97730000Y-50420000D02*
X97730000Y-51180000D01*
X91730000Y-50420000D02*
X97730000Y-50420000D01*
X89070000Y-49530000D02*
X91730000Y-49530000D01*
X88672929Y-48640000D02*
X89070000Y-48640000D01*
X88672929Y-47880000D02*
X89070000Y-47880000D01*
X97730000Y-48640000D02*
X91730000Y-48640000D01*
X97730000Y-47880000D02*
X97730000Y-48640000D01*
X91730000Y-47880000D02*
X97730000Y-47880000D01*
X89070000Y-46990000D02*
X91730000Y-46990000D01*
X88672929Y-46100000D02*
X89070000Y-46100000D01*
X88672929Y-45340000D02*
X89070000Y-45340000D01*
X97730000Y-46100000D02*
X91730000Y-46100000D01*
X97730000Y-45340000D02*
X97730000Y-46100000D01*
X91730000Y-45340000D02*
X97730000Y-45340000D01*
X89070000Y-44450000D02*
X91730000Y-44450000D01*
X88672929Y-43560000D02*
X89070000Y-43560000D01*
X88672929Y-42800000D02*
X89070000Y-42800000D01*
X97730000Y-43560000D02*
X91730000Y-43560000D01*
X97730000Y-42800000D02*
X97730000Y-43560000D01*
X91730000Y-42800000D02*
X97730000Y-42800000D01*
X89070000Y-41910000D02*
X91730000Y-41910000D01*
X88672929Y-41020000D02*
X89070000Y-41020000D01*
X88672929Y-40260000D02*
X89070000Y-40260000D01*
X97730000Y-41020000D02*
X91730000Y-41020000D01*
X97730000Y-40260000D02*
X97730000Y-41020000D01*
X91730000Y-40260000D02*
X97730000Y-40260000D01*
X89070000Y-39370000D02*
X91730000Y-39370000D01*
X88740000Y-38480000D02*
X89070000Y-38480000D01*
X88740000Y-37720000D02*
X89070000Y-37720000D01*
X91730000Y-38380000D02*
X97730000Y-38380000D01*
X91730000Y-38260000D02*
X97730000Y-38260000D01*
X91730000Y-38140000D02*
X97730000Y-38140000D01*
X91730000Y-38020000D02*
X97730000Y-38020000D01*
X91730000Y-37900000D02*
X97730000Y-37900000D01*
X91730000Y-37780000D02*
X97730000Y-37780000D01*
X97730000Y-38480000D02*
X91730000Y-38480000D01*
X97730000Y-37720000D02*
X97730000Y-38480000D01*
X91730000Y-37720000D02*
X97730000Y-37720000D01*
X91730000Y-36770000D02*
X89070000Y-36770000D01*
X91730000Y-52130000D02*
X91730000Y-36770000D01*
X89070000Y-52130000D02*
X91730000Y-52130000D01*
X89070000Y-36770000D02*
X89070000Y-52130000D01*
X82490000Y-5140000D02*
X85150000Y-5140000D01*
X82490000Y-2540000D02*
X82490000Y-5140000D01*
X85150000Y-2540000D02*
X85150000Y-5140000D01*
X82490000Y-2540000D02*
X85150000Y-2540000D01*
X82490000Y-1270000D02*
X82490000Y60000D01*
X82490000Y60000D02*
X83820000Y60000D01*
X1845000Y-47090000D02*
X1845000Y-44350000D01*
X7085000Y-47090000D02*
X7085000Y-44350000D01*
X7085000Y-44350000D02*
X1845000Y-44350000D01*
X7085000Y-47090000D02*
X1845000Y-47090000D01*
X31015000Y-18950000D02*
X36255000Y-18950000D01*
X31015000Y-21690000D02*
X36255000Y-21690000D01*
X31015000Y-18950000D02*
X31015000Y-21690000D01*
X36255000Y-18950000D02*
X36255000Y-21690000D01*
X51375000Y-47090000D02*
X51375000Y-44350000D01*
X56615000Y-47090000D02*
X56615000Y-44350000D01*
X56615000Y-44350000D02*
X51375000Y-44350000D01*
X56615000Y-47090000D02*
X51375000Y-47090000D01*
X76935000Y-30580000D02*
X71695000Y-30580000D01*
X76935000Y-27840000D02*
X71695000Y-27840000D01*
X76935000Y-30580000D02*
X76935000Y-27840000D01*
X71695000Y-30580000D02*
X71695000Y-27840000D01*
X76260000Y4545000D02*
X76260000Y1805000D01*
X71020000Y4545000D02*
X71020000Y1805000D01*
X71020000Y1805000D02*
X76260000Y1805000D01*
X71020000Y4545000D02*
X76260000Y4545000D01*
X60425000Y1805000D02*
X55185000Y1805000D01*
X60425000Y4545000D02*
X55185000Y4545000D01*
X60425000Y1805000D02*
X60425000Y4545000D01*
X55185000Y1805000D02*
X55185000Y4545000D01*
X58785000Y-575000D02*
G75*
G02X56785000Y-575000I-1000000J0D01*
G01*
X56785000Y-575000D02*
X55535000Y-575000D01*
X55535000Y-575000D02*
X55535000Y-26095000D01*
X55535000Y-26095000D02*
X60035000Y-26095000D01*
X60035000Y-26095000D02*
X60035000Y-575000D01*
X60035000Y-575000D02*
X58785000Y-575000D01*
X10505000Y-48835000D02*
X5445000Y-48835000D01*
X10505000Y-84515000D02*
X10505000Y-48835000D01*
X-1615000Y-84515000D02*
X10505000Y-84515000D01*
X-1615000Y-48835000D02*
X-1615000Y-84515000D01*
X3445000Y-48835000D02*
X-1615000Y-48835000D01*
X5445000Y-48835000D02*
G75*
G02X3445000Y-48835000I-1000000J0D01*
G01*
X54975000Y-48835000D02*
G75*
G02X52975000Y-48835000I-1000000J0D01*
G01*
X52975000Y-48835000D02*
X47915000Y-48835000D01*
X47915000Y-48835000D02*
X47915000Y-84515000D01*
X47915000Y-84515000D02*
X60035000Y-84515000D01*
X60035000Y-84515000D02*
X60035000Y-48835000D01*
X60035000Y-48835000D02*
X54975000Y-48835000D01*
X75295000Y-33595000D02*
G75*
G02X73295000Y-33595000I-1000000J0D01*
G01*
X73295000Y-33595000D02*
X68235000Y-33595000D01*
X68235000Y-33595000D02*
X68235000Y-84515000D01*
X68235000Y-84515000D02*
X80355000Y-84515000D01*
X80355000Y-84515000D02*
X80355000Y-33595000D01*
X80355000Y-33595000D02*
X75295000Y-33595000D01*
X34655000Y-23435000D02*
G75*
G02X32655000Y-23435000I-1000000J0D01*
G01*
X32655000Y-23435000D02*
X27595000Y-23435000D01*
X27595000Y-23435000D02*
X27595000Y-84515000D01*
X27595000Y-84515000D02*
X39715000Y-84515000D01*
X39715000Y-84515000D02*
X39715000Y-23435000D01*
X39715000Y-23435000D02*
X34655000Y-23435000D01*
X74660000Y-575000D02*
G75*
G02X72660000Y-575000I-1000000J0D01*
G01*
X72660000Y-575000D02*
X71410000Y-575000D01*
X71410000Y-575000D02*
X71410000Y-10855000D01*
X71410000Y-10855000D02*
X75910000Y-10855000D01*
X75910000Y-10855000D02*
X75910000Y-575000D01*
X75910000Y-575000D02*
X74660000Y-575000D01*
X4910000Y-695000D02*
X4910000Y355000D01*
X3860000Y355000D02*
X4910000Y355000D01*
X-1190000Y-9045000D02*
X-9990000Y-9045000D01*
X-9990000Y-9045000D02*
X-9990000Y155000D01*
X4710000Y-6345000D02*
X4710000Y-9045000D01*
X4710000Y-9045000D02*
X2810000Y-9045000D01*
X-9990000Y155000D02*
X4710000Y155000D01*
X4710000Y155000D02*
X4710000Y-2445000D01*
X82490000Y-23555000D02*
X85150000Y-23555000D01*
X82490000Y-20955000D02*
X82490000Y-23555000D01*
X85150000Y-20955000D02*
X85150000Y-23555000D01*
X82490000Y-20955000D02*
X85150000Y-20955000D01*
X82490000Y-19685000D02*
X82490000Y-18355000D01*
X82490000Y-18355000D02*
X83820000Y-18355000D01*
X22185000Y-11550000D02*
X32425000Y-11550000D01*
X22185000Y4340000D02*
X32425000Y4340000D01*
X22185000Y4340000D02*
X22185000Y-11550000D01*
X32425000Y4340000D02*
X32425000Y-11550000D01*
X24765000Y-11550000D02*
X24765000Y-14090000D01*
X27305000Y-11550000D02*
X27305000Y-14090000D01*
X29845000Y-11550000D02*
X29845000Y-14090000D01*
X7605000Y-13045000D02*
X-4545000Y-13045000D01*
X8355000Y-33195000D02*
X8355000Y-13795000D01*
X-3795000Y-33945000D02*
X7605000Y-33945000D01*
X-4545000Y-13045000D02*
X-4545000Y-33195000D01*
X-4545000Y-33195000D02*
G75*
G03X-3795000Y-33945000I750000J0D01*
G01*
X7605000Y-33945000D02*
G75*
G03X8355000Y-33195000I0J750000D01*
G01*
X8355000Y-13795000D02*
G75*
G03X7605000Y-13045000I-750000J0D01*
G01*
X13300225Y-10975000D02*
X13300225Y-11475000D01*
X13050225Y-11225000D02*
X13550225Y-11225000D01*
X18456000Y-12416000D02*
X18456000Y-12984000D01*
X18416000Y-12182000D02*
X18416000Y-13218000D01*
X18376000Y-12023000D02*
X18376000Y-13377000D01*
X18336000Y-11895000D02*
X18336000Y-13505000D01*
X18296000Y-11785000D02*
X18296000Y-13615000D01*
X18256000Y-11689000D02*
X18256000Y-13711000D01*
X18216000Y-11602000D02*
X18216000Y-13798000D01*
X18176000Y-11522000D02*
X18176000Y-13878000D01*
X18136000Y-13740000D02*
X18136000Y-13951000D01*
X18136000Y-11449000D02*
X18136000Y-11660000D01*
X18096000Y-13740000D02*
X18096000Y-14019000D01*
X18096000Y-11381000D02*
X18096000Y-11660000D01*
X18056000Y-13740000D02*
X18056000Y-14083000D01*
X18056000Y-11317000D02*
X18056000Y-11660000D01*
X18016000Y-13740000D02*
X18016000Y-14143000D01*
X18016000Y-11257000D02*
X18016000Y-11660000D01*
X17976000Y-13740000D02*
X17976000Y-14200000D01*
X17976000Y-11200000D02*
X17976000Y-11660000D01*
X17936000Y-13740000D02*
X17936000Y-14254000D01*
X17936000Y-11146000D02*
X17936000Y-11660000D01*
X17896000Y-13740000D02*
X17896000Y-14305000D01*
X17896000Y-11095000D02*
X17896000Y-11660000D01*
X17856000Y-13740000D02*
X17856000Y-14353000D01*
X17856000Y-11047000D02*
X17856000Y-11660000D01*
X17816000Y-13740000D02*
X17816000Y-14399000D01*
X17816000Y-11001000D02*
X17816000Y-11660000D01*
X17776000Y-13740000D02*
X17776000Y-14443000D01*
X17776000Y-10957000D02*
X17776000Y-11660000D01*
X17736000Y-13740000D02*
X17736000Y-14485000D01*
X17736000Y-10915000D02*
X17736000Y-11660000D01*
X17696000Y-13740000D02*
X17696000Y-14526000D01*
X17696000Y-10874000D02*
X17696000Y-11660000D01*
X17656000Y-13740000D02*
X17656000Y-14564000D01*
X17656000Y-10836000D02*
X17656000Y-11660000D01*
X17616000Y-13740000D02*
X17616000Y-14601000D01*
X17616000Y-10799000D02*
X17616000Y-11660000D01*
X17576000Y-13740000D02*
X17576000Y-14637000D01*
X17576000Y-10763000D02*
X17576000Y-11660000D01*
X17536000Y-13740000D02*
X17536000Y-14671000D01*
X17536000Y-10729000D02*
X17536000Y-11660000D01*
X17496000Y-13740000D02*
X17496000Y-14704000D01*
X17496000Y-10696000D02*
X17496000Y-11660000D01*
X17456000Y-13740000D02*
X17456000Y-14735000D01*
X17456000Y-10665000D02*
X17456000Y-11660000D01*
X17416000Y-13740000D02*
X17416000Y-14765000D01*
X17416000Y-10635000D02*
X17416000Y-11660000D01*
X17376000Y-13740000D02*
X17376000Y-14795000D01*
X17376000Y-10605000D02*
X17376000Y-11660000D01*
X17336000Y-13740000D02*
X17336000Y-14822000D01*
X17336000Y-10578000D02*
X17336000Y-11660000D01*
X17296000Y-13740000D02*
X17296000Y-14849000D01*
X17296000Y-10551000D02*
X17296000Y-11660000D01*
X17256000Y-13740000D02*
X17256000Y-14875000D01*
X17256000Y-10525000D02*
X17256000Y-11660000D01*
X17216000Y-13740000D02*
X17216000Y-14900000D01*
X17216000Y-10500000D02*
X17216000Y-11660000D01*
X17176000Y-13740000D02*
X17176000Y-14924000D01*
X17176000Y-10476000D02*
X17176000Y-11660000D01*
X17136000Y-13740000D02*
X17136000Y-14947000D01*
X17136000Y-10453000D02*
X17136000Y-11660000D01*
X17096000Y-13740000D02*
X17096000Y-14968000D01*
X17096000Y-10432000D02*
X17096000Y-11660000D01*
X17056000Y-13740000D02*
X17056000Y-14990000D01*
X17056000Y-10410000D02*
X17056000Y-11660000D01*
X17016000Y-13740000D02*
X17016000Y-15010000D01*
X17016000Y-10390000D02*
X17016000Y-11660000D01*
X16976000Y-13740000D02*
X16976000Y-15029000D01*
X16976000Y-10371000D02*
X16976000Y-11660000D01*
X16936000Y-13740000D02*
X16936000Y-15048000D01*
X16936000Y-10352000D02*
X16936000Y-11660000D01*
X16896000Y-13740000D02*
X16896000Y-15065000D01*
X16896000Y-10335000D02*
X16896000Y-11660000D01*
X16856000Y-13740000D02*
X16856000Y-15082000D01*
X16856000Y-10318000D02*
X16856000Y-11660000D01*
X16816000Y-13740000D02*
X16816000Y-15098000D01*
X16816000Y-10302000D02*
X16816000Y-11660000D01*
X16776000Y-13740000D02*
X16776000Y-15114000D01*
X16776000Y-10286000D02*
X16776000Y-11660000D01*
X16736000Y-13740000D02*
X16736000Y-15128000D01*
X16736000Y-10272000D02*
X16736000Y-11660000D01*
X16696000Y-13740000D02*
X16696000Y-15142000D01*
X16696000Y-10258000D02*
X16696000Y-11660000D01*
X16656000Y-13740000D02*
X16656000Y-15155000D01*
X16656000Y-10245000D02*
X16656000Y-11660000D01*
X16616000Y-13740000D02*
X16616000Y-15168000D01*
X16616000Y-10232000D02*
X16616000Y-11660000D01*
X16576000Y-13740000D02*
X16576000Y-15180000D01*
X16576000Y-10220000D02*
X16576000Y-11660000D01*
X16535000Y-13740000D02*
X16535000Y-15191000D01*
X16535000Y-10209000D02*
X16535000Y-11660000D01*
X16495000Y-13740000D02*
X16495000Y-15201000D01*
X16495000Y-10199000D02*
X16495000Y-11660000D01*
X16455000Y-13740000D02*
X16455000Y-15211000D01*
X16455000Y-10189000D02*
X16455000Y-11660000D01*
X16415000Y-13740000D02*
X16415000Y-15220000D01*
X16415000Y-10180000D02*
X16415000Y-11660000D01*
X16375000Y-13740000D02*
X16375000Y-15228000D01*
X16375000Y-10172000D02*
X16375000Y-11660000D01*
X16335000Y-13740000D02*
X16335000Y-15236000D01*
X16335000Y-10164000D02*
X16335000Y-11660000D01*
X16295000Y-13740000D02*
X16295000Y-15243000D01*
X16295000Y-10157000D02*
X16295000Y-11660000D01*
X16255000Y-13740000D02*
X16255000Y-15250000D01*
X16255000Y-10150000D02*
X16255000Y-11660000D01*
X16215000Y-13740000D02*
X16215000Y-15256000D01*
X16215000Y-10144000D02*
X16215000Y-11660000D01*
X16175000Y-13740000D02*
X16175000Y-15261000D01*
X16175000Y-10139000D02*
X16175000Y-11660000D01*
X16135000Y-13740000D02*
X16135000Y-15265000D01*
X16135000Y-10135000D02*
X16135000Y-11660000D01*
X16095000Y-13740000D02*
X16095000Y-15269000D01*
X16095000Y-10131000D02*
X16095000Y-11660000D01*
X16055000Y-10127000D02*
X16055000Y-15273000D01*
X16015000Y-10124000D02*
X16015000Y-15276000D01*
X15975000Y-10122000D02*
X15975000Y-15278000D01*
X15935000Y-10121000D02*
X15935000Y-15279000D01*
X15895000Y-10120000D02*
X15895000Y-15280000D01*
X15855000Y-10120000D02*
X15855000Y-15280000D01*
X18475000Y-12700000D02*
G75*
G03X18475000Y-12700000I-2620000J0D01*
G01*
X40700000Y-12065000D02*
G75*
G03X40700000Y-12065000I-2620000J0D01*
G01*
X38080000Y-9485000D02*
X38080000Y-14645000D01*
X38120000Y-9485000D02*
X38120000Y-14645000D01*
X38160000Y-9486000D02*
X38160000Y-14644000D01*
X38200000Y-9487000D02*
X38200000Y-14643000D01*
X38240000Y-9489000D02*
X38240000Y-14641000D01*
X38280000Y-9492000D02*
X38280000Y-14638000D01*
X38320000Y-9496000D02*
X38320000Y-11025000D01*
X38320000Y-13105000D02*
X38320000Y-14634000D01*
X38360000Y-9500000D02*
X38360000Y-11025000D01*
X38360000Y-13105000D02*
X38360000Y-14630000D01*
X38400000Y-9504000D02*
X38400000Y-11025000D01*
X38400000Y-13105000D02*
X38400000Y-14626000D01*
X38440000Y-9509000D02*
X38440000Y-11025000D01*
X38440000Y-13105000D02*
X38440000Y-14621000D01*
X38480000Y-9515000D02*
X38480000Y-11025000D01*
X38480000Y-13105000D02*
X38480000Y-14615000D01*
X38520000Y-9522000D02*
X38520000Y-11025000D01*
X38520000Y-13105000D02*
X38520000Y-14608000D01*
X38560000Y-9529000D02*
X38560000Y-11025000D01*
X38560000Y-13105000D02*
X38560000Y-14601000D01*
X38600000Y-9537000D02*
X38600000Y-11025000D01*
X38600000Y-13105000D02*
X38600000Y-14593000D01*
X38640000Y-9545000D02*
X38640000Y-11025000D01*
X38640000Y-13105000D02*
X38640000Y-14585000D01*
X38680000Y-9554000D02*
X38680000Y-11025000D01*
X38680000Y-13105000D02*
X38680000Y-14576000D01*
X38720000Y-9564000D02*
X38720000Y-11025000D01*
X38720000Y-13105000D02*
X38720000Y-14566000D01*
X38760000Y-9574000D02*
X38760000Y-11025000D01*
X38760000Y-13105000D02*
X38760000Y-14556000D01*
X38801000Y-9585000D02*
X38801000Y-11025000D01*
X38801000Y-13105000D02*
X38801000Y-14545000D01*
X38841000Y-9597000D02*
X38841000Y-11025000D01*
X38841000Y-13105000D02*
X38841000Y-14533000D01*
X38881000Y-9610000D02*
X38881000Y-11025000D01*
X38881000Y-13105000D02*
X38881000Y-14520000D01*
X38921000Y-9623000D02*
X38921000Y-11025000D01*
X38921000Y-13105000D02*
X38921000Y-14507000D01*
X38961000Y-9637000D02*
X38961000Y-11025000D01*
X38961000Y-13105000D02*
X38961000Y-14493000D01*
X39001000Y-9651000D02*
X39001000Y-11025000D01*
X39001000Y-13105000D02*
X39001000Y-14479000D01*
X39041000Y-9667000D02*
X39041000Y-11025000D01*
X39041000Y-13105000D02*
X39041000Y-14463000D01*
X39081000Y-9683000D02*
X39081000Y-11025000D01*
X39081000Y-13105000D02*
X39081000Y-14447000D01*
X39121000Y-9700000D02*
X39121000Y-11025000D01*
X39121000Y-13105000D02*
X39121000Y-14430000D01*
X39161000Y-9717000D02*
X39161000Y-11025000D01*
X39161000Y-13105000D02*
X39161000Y-14413000D01*
X39201000Y-9736000D02*
X39201000Y-11025000D01*
X39201000Y-13105000D02*
X39201000Y-14394000D01*
X39241000Y-9755000D02*
X39241000Y-11025000D01*
X39241000Y-13105000D02*
X39241000Y-14375000D01*
X39281000Y-9775000D02*
X39281000Y-11025000D01*
X39281000Y-13105000D02*
X39281000Y-14355000D01*
X39321000Y-9797000D02*
X39321000Y-11025000D01*
X39321000Y-13105000D02*
X39321000Y-14333000D01*
X39361000Y-9818000D02*
X39361000Y-11025000D01*
X39361000Y-13105000D02*
X39361000Y-14312000D01*
X39401000Y-9841000D02*
X39401000Y-11025000D01*
X39401000Y-13105000D02*
X39401000Y-14289000D01*
X39441000Y-9865000D02*
X39441000Y-11025000D01*
X39441000Y-13105000D02*
X39441000Y-14265000D01*
X39481000Y-9890000D02*
X39481000Y-11025000D01*
X39481000Y-13105000D02*
X39481000Y-14240000D01*
X39521000Y-9916000D02*
X39521000Y-11025000D01*
X39521000Y-13105000D02*
X39521000Y-14214000D01*
X39561000Y-9943000D02*
X39561000Y-11025000D01*
X39561000Y-13105000D02*
X39561000Y-14187000D01*
X39601000Y-9970000D02*
X39601000Y-11025000D01*
X39601000Y-13105000D02*
X39601000Y-14160000D01*
X39641000Y-10000000D02*
X39641000Y-11025000D01*
X39641000Y-13105000D02*
X39641000Y-14130000D01*
X39681000Y-10030000D02*
X39681000Y-11025000D01*
X39681000Y-13105000D02*
X39681000Y-14100000D01*
X39721000Y-10061000D02*
X39721000Y-11025000D01*
X39721000Y-13105000D02*
X39721000Y-14069000D01*
X39761000Y-10094000D02*
X39761000Y-11025000D01*
X39761000Y-13105000D02*
X39761000Y-14036000D01*
X39801000Y-10128000D02*
X39801000Y-11025000D01*
X39801000Y-13105000D02*
X39801000Y-14002000D01*
X39841000Y-10164000D02*
X39841000Y-11025000D01*
X39841000Y-13105000D02*
X39841000Y-13966000D01*
X39881000Y-10201000D02*
X39881000Y-11025000D01*
X39881000Y-13105000D02*
X39881000Y-13929000D01*
X39921000Y-10239000D02*
X39921000Y-11025000D01*
X39921000Y-13105000D02*
X39921000Y-13891000D01*
X39961000Y-10280000D02*
X39961000Y-11025000D01*
X39961000Y-13105000D02*
X39961000Y-13850000D01*
X40001000Y-10322000D02*
X40001000Y-11025000D01*
X40001000Y-13105000D02*
X40001000Y-13808000D01*
X40041000Y-10366000D02*
X40041000Y-11025000D01*
X40041000Y-13105000D02*
X40041000Y-13764000D01*
X40081000Y-10412000D02*
X40081000Y-11025000D01*
X40081000Y-13105000D02*
X40081000Y-13718000D01*
X40121000Y-10460000D02*
X40121000Y-11025000D01*
X40121000Y-13105000D02*
X40121000Y-13670000D01*
X40161000Y-10511000D02*
X40161000Y-11025000D01*
X40161000Y-13105000D02*
X40161000Y-13619000D01*
X40201000Y-10565000D02*
X40201000Y-11025000D01*
X40201000Y-13105000D02*
X40201000Y-13565000D01*
X40241000Y-10622000D02*
X40241000Y-11025000D01*
X40241000Y-13105000D02*
X40241000Y-13508000D01*
X40281000Y-10682000D02*
X40281000Y-11025000D01*
X40281000Y-13105000D02*
X40281000Y-13448000D01*
X40321000Y-10746000D02*
X40321000Y-11025000D01*
X40321000Y-13105000D02*
X40321000Y-13384000D01*
X40361000Y-10814000D02*
X40361000Y-11025000D01*
X40361000Y-13105000D02*
X40361000Y-13316000D01*
X40401000Y-10887000D02*
X40401000Y-13243000D01*
X40441000Y-10967000D02*
X40441000Y-13163000D01*
X40481000Y-11054000D02*
X40481000Y-13076000D01*
X40521000Y-11150000D02*
X40521000Y-12980000D01*
X40561000Y-11260000D02*
X40561000Y-12870000D01*
X40601000Y-11388000D02*
X40601000Y-12742000D01*
X40641000Y-11547000D02*
X40641000Y-12583000D01*
X40681000Y-11781000D02*
X40681000Y-12349000D01*
X35275225Y-10590000D02*
X35775225Y-10590000D01*
X35525225Y-10340000D02*
X35525225Y-10840000D01*
X9375000Y-2325000D02*
X7135000Y-2325000D01*
X7135000Y-2325000D02*
X7135000Y-6565000D01*
X7135000Y-6565000D02*
X9375000Y-6565000D01*
X9375000Y-6565000D02*
X9375000Y-2325000D01*
X8255000Y-405000D02*
X8255000Y-2325000D01*
X8255000Y-8485000D02*
X8255000Y-6565000D01*
X9375000Y-3045000D02*
X7135000Y-3045000D01*
X9375000Y-3165000D02*
X7135000Y-3165000D01*
X9375000Y-2925000D02*
X7135000Y-2925000D01*
X47963242Y3620724D02*
G75*
G03X43660000Y3938749I-2243242J-1080724D01*
G01*
X47963242Y1459276D02*
G75*
G02X43660000Y1141251I-2243242J1080724D01*
G01*
X47402713Y3620961D02*
G75*
G03X44036670Y3620000I-1682713J-1080961D01*
G01*
X47402713Y1459039D02*
G75*
G02X44036670Y1460000I-1682713J1080961D01*
G01*
X43660000Y3939000D02*
X43660000Y3620000D01*
X43660000Y1460000D02*
X43660000Y1141000D01*
X37060000Y-4540000D02*
X36730000Y-4540000D01*
X36730000Y-4540000D02*
X36730000Y2000000D01*
X36730000Y2000000D02*
X37060000Y2000000D01*
X39140000Y-4540000D02*
X39470000Y-4540000D01*
X39470000Y-4540000D02*
X39470000Y2000000D01*
X39470000Y2000000D02*
X39140000Y2000000D01*
X47120000Y-3005000D02*
X44320000Y-3005000D01*
X44320000Y-3005000D02*
X44320000Y-21125000D01*
X44320000Y-21125000D02*
X47120000Y-21125000D01*
X47120000Y-21125000D02*
X47120000Y-3005000D01*
X47120000Y-5715000D02*
X44320000Y-5715000D01*
X71485000Y-22010000D02*
X75985000Y-22010000D01*
X70235000Y-18010000D02*
X70235000Y-19510000D01*
X75985000Y-15510000D02*
X71485000Y-15510000D01*
X77235000Y-19510000D02*
X77235000Y-18010000D01*
X20265000Y-2790000D02*
X19415000Y-2790000D01*
X17415000Y-2790000D02*
X16885000Y-2790000D01*
X14945000Y-2790000D02*
X14385000Y-2790000D01*
X12445000Y-2790000D02*
X11565000Y-2790000D01*
X11565000Y-2790000D02*
X11565000Y910000D01*
X11565000Y910000D02*
X12435000Y910000D01*
X14395000Y910000D02*
X14945000Y910000D01*
X16885000Y910000D02*
X17445000Y910000D01*
X19385000Y910000D02*
X20265000Y910000D01*
X20265000Y910000D02*
X20265000Y-2790000D01*
X20565000Y-2090000D02*
X20565000Y-3090000D01*
X20565000Y-3090000D02*
X19565000Y-3090000D01*
X20300000Y-24190000D02*
X20300000Y-21530000D01*
X15160000Y-24190000D02*
X20300000Y-24190000D01*
X15160000Y-21530000D02*
X20300000Y-21530000D01*
X15160000Y-24190000D02*
X15160000Y-21530000D01*
X13890000Y-24190000D02*
X12560000Y-24190000D01*
X12560000Y-24190000D02*
X12560000Y-22860000D01*
X12560000Y-28000000D02*
X12560000Y-26670000D01*
X13890000Y-28000000D02*
X12560000Y-28000000D01*
X15160000Y-28000000D02*
X15160000Y-25340000D01*
X15160000Y-25340000D02*
X20300000Y-25340000D01*
X15160000Y-28000000D02*
X20300000Y-28000000D01*
X20300000Y-28000000D02*
X20300000Y-25340000D01*
X89070000Y-18355000D02*
X89070000Y-33715000D01*
X89070000Y-33715000D02*
X91730000Y-33715000D01*
X91730000Y-33715000D02*
X91730000Y-18355000D01*
X91730000Y-18355000D02*
X89070000Y-18355000D01*
X91730000Y-19305000D02*
X97730000Y-19305000D01*
X97730000Y-19305000D02*
X97730000Y-20065000D01*
X97730000Y-20065000D02*
X91730000Y-20065000D01*
X91730000Y-19365000D02*
X97730000Y-19365000D01*
X91730000Y-19485000D02*
X97730000Y-19485000D01*
X91730000Y-19605000D02*
X97730000Y-19605000D01*
X91730000Y-19725000D02*
X97730000Y-19725000D01*
X91730000Y-19845000D02*
X97730000Y-19845000D01*
X91730000Y-19965000D02*
X97730000Y-19965000D01*
X88740000Y-19305000D02*
X89070000Y-19305000D01*
X88740000Y-20065000D02*
X89070000Y-20065000D01*
X89070000Y-20955000D02*
X91730000Y-20955000D01*
X91730000Y-21845000D02*
X97730000Y-21845000D01*
X97730000Y-21845000D02*
X97730000Y-22605000D01*
X97730000Y-22605000D02*
X91730000Y-22605000D01*
X88672929Y-21845000D02*
X89070000Y-21845000D01*
X88672929Y-22605000D02*
X89070000Y-22605000D01*
X89070000Y-23495000D02*
X91730000Y-23495000D01*
X91730000Y-24385000D02*
X97730000Y-24385000D01*
X97730000Y-24385000D02*
X97730000Y-25145000D01*
X97730000Y-25145000D02*
X91730000Y-25145000D01*
X88672929Y-24385000D02*
X89070000Y-24385000D01*
X88672929Y-25145000D02*
X89070000Y-25145000D01*
X89070000Y-26035000D02*
X91730000Y-26035000D01*
X91730000Y-26925000D02*
X97730000Y-26925000D01*
X97730000Y-26925000D02*
X97730000Y-27685000D01*
X97730000Y-27685000D02*
X91730000Y-27685000D01*
X88672929Y-26925000D02*
X89070000Y-26925000D01*
X88672929Y-27685000D02*
X89070000Y-27685000D01*
X89070000Y-28575000D02*
X91730000Y-28575000D01*
X91730000Y-29465000D02*
X97730000Y-29465000D01*
X97730000Y-29465000D02*
X97730000Y-30225000D01*
X97730000Y-30225000D02*
X91730000Y-30225000D01*
X88672929Y-29465000D02*
X89070000Y-29465000D01*
X88672929Y-30225000D02*
X89070000Y-30225000D01*
X89070000Y-31115000D02*
X91730000Y-31115000D01*
X91730000Y-32005000D02*
X97730000Y-32005000D01*
X97730000Y-32005000D02*
X97730000Y-32765000D01*
X97730000Y-32765000D02*
X91730000Y-32765000D01*
X88672929Y-32005000D02*
X89070000Y-32005000D01*
X88672929Y-32765000D02*
X89070000Y-32765000D01*
X86360000Y-19685000D02*
X86360000Y-18415000D01*
X86360000Y-18415000D02*
X87630000Y-18415000D01*
X86360000Y0D02*
X87630000Y0D01*
X86360000Y-1270000D02*
X86360000Y0D01*
X88672929Y-14350000D02*
X89070000Y-14350000D01*
X88672929Y-13590000D02*
X89070000Y-13590000D01*
X97730000Y-14350000D02*
X91730000Y-14350000D01*
X97730000Y-13590000D02*
X97730000Y-14350000D01*
X91730000Y-13590000D02*
X97730000Y-13590000D01*
X89070000Y-12700000D02*
X91730000Y-12700000D01*
X88672929Y-11810000D02*
X89070000Y-11810000D01*
X88672929Y-11050000D02*
X89070000Y-11050000D01*
X97730000Y-11810000D02*
X91730000Y-11810000D01*
X97730000Y-11050000D02*
X97730000Y-11810000D01*
X91730000Y-11050000D02*
X97730000Y-11050000D01*
X89070000Y-10160000D02*
X91730000Y-10160000D01*
X88672929Y-9270000D02*
X89070000Y-9270000D01*
X88672929Y-8510000D02*
X89070000Y-8510000D01*
X97730000Y-9270000D02*
X91730000Y-9270000D01*
X97730000Y-8510000D02*
X97730000Y-9270000D01*
X91730000Y-8510000D02*
X97730000Y-8510000D01*
X89070000Y-7620000D02*
X91730000Y-7620000D01*
X88672929Y-6730000D02*
X89070000Y-6730000D01*
X88672929Y-5970000D02*
X89070000Y-5970000D01*
X97730000Y-6730000D02*
X91730000Y-6730000D01*
X97730000Y-5970000D02*
X97730000Y-6730000D01*
X91730000Y-5970000D02*
X97730000Y-5970000D01*
X89070000Y-5080000D02*
X91730000Y-5080000D01*
X88672929Y-4190000D02*
X89070000Y-4190000D01*
X88672929Y-3430000D02*
X89070000Y-3430000D01*
X97730000Y-4190000D02*
X91730000Y-4190000D01*
X97730000Y-3430000D02*
X97730000Y-4190000D01*
X91730000Y-3430000D02*
X97730000Y-3430000D01*
X89070000Y-2540000D02*
X91730000Y-2540000D01*
X88740000Y-1650000D02*
X89070000Y-1650000D01*
X88740000Y-890000D02*
X89070000Y-890000D01*
X91730000Y-1550000D02*
X97730000Y-1550000D01*
X91730000Y-1430000D02*
X97730000Y-1430000D01*
X91730000Y-1310000D02*
X97730000Y-1310000D01*
X91730000Y-1190000D02*
X97730000Y-1190000D01*
X91730000Y-1070000D02*
X97730000Y-1070000D01*
X91730000Y-950000D02*
X97730000Y-950000D01*
X97730000Y-1650000D02*
X91730000Y-1650000D01*
X97730000Y-890000D02*
X97730000Y-1650000D01*
X91730000Y-890000D02*
X97730000Y-890000D01*
X91730000Y60000D02*
X89070000Y60000D01*
X91730000Y-15300000D02*
X91730000Y60000D01*
X89070000Y-15300000D02*
X91730000Y-15300000D01*
X89070000Y60000D02*
X89070000Y-15300000D01*
X89070000Y-63440000D02*
X89070000Y-83880000D01*
X89070000Y-83880000D02*
X91730000Y-83880000D01*
X91730000Y-83880000D02*
X91730000Y-63440000D01*
X91730000Y-63440000D02*
X89070000Y-63440000D01*
X91730000Y-64390000D02*
X97730000Y-64390000D01*
X97730000Y-64390000D02*
X97730000Y-65150000D01*
X97730000Y-65150000D02*
X91730000Y-65150000D01*
X91730000Y-64450000D02*
X97730000Y-64450000D01*
X91730000Y-64570000D02*
X97730000Y-64570000D01*
X91730000Y-64690000D02*
X97730000Y-64690000D01*
X91730000Y-64810000D02*
X97730000Y-64810000D01*
X91730000Y-64930000D02*
X97730000Y-64930000D01*
X91730000Y-65050000D02*
X97730000Y-65050000D01*
X88740000Y-64390000D02*
X89070000Y-64390000D01*
X88740000Y-65150000D02*
X89070000Y-65150000D01*
X89070000Y-66040000D02*
X91730000Y-66040000D01*
X91730000Y-66930000D02*
X97730000Y-66930000D01*
X97730000Y-66930000D02*
X97730000Y-67690000D01*
X97730000Y-67690000D02*
X91730000Y-67690000D01*
X88672929Y-66930000D02*
X89070000Y-66930000D01*
X88672929Y-67690000D02*
X89070000Y-67690000D01*
X89070000Y-68580000D02*
X91730000Y-68580000D01*
X91730000Y-69470000D02*
X97730000Y-69470000D01*
X97730000Y-69470000D02*
X97730000Y-70230000D01*
X97730000Y-70230000D02*
X91730000Y-70230000D01*
X88672929Y-69470000D02*
X89070000Y-69470000D01*
X88672929Y-70230000D02*
X89070000Y-70230000D01*
X89070000Y-71120000D02*
X91730000Y-71120000D01*
X91730000Y-72010000D02*
X97730000Y-72010000D01*
X97730000Y-72010000D02*
X97730000Y-72770000D01*
X97730000Y-72770000D02*
X91730000Y-72770000D01*
X88672929Y-72010000D02*
X89070000Y-72010000D01*
X88672929Y-72770000D02*
X89070000Y-72770000D01*
X89070000Y-73660000D02*
X91730000Y-73660000D01*
X91730000Y-74550000D02*
X97730000Y-74550000D01*
X97730000Y-74550000D02*
X97730000Y-75310000D01*
X97730000Y-75310000D02*
X91730000Y-75310000D01*
X88672929Y-74550000D02*
X89070000Y-74550000D01*
X88672929Y-75310000D02*
X89070000Y-75310000D01*
X89070000Y-76200000D02*
X91730000Y-76200000D01*
X91730000Y-77090000D02*
X97730000Y-77090000D01*
X97730000Y-77090000D02*
X97730000Y-77850000D01*
X97730000Y-77850000D02*
X91730000Y-77850000D01*
X88672929Y-77090000D02*
X89070000Y-77090000D01*
X88672929Y-77850000D02*
X89070000Y-77850000D01*
X89070000Y-78740000D02*
X91730000Y-78740000D01*
X91730000Y-79630000D02*
X97730000Y-79630000D01*
X97730000Y-79630000D02*
X97730000Y-80390000D01*
X97730000Y-80390000D02*
X91730000Y-80390000D01*
X88672929Y-79630000D02*
X89070000Y-79630000D01*
X88672929Y-80390000D02*
X89070000Y-80390000D01*
X89070000Y-81280000D02*
X91730000Y-81280000D01*
X91730000Y-82170000D02*
X97730000Y-82170000D01*
X97730000Y-82170000D02*
X97730000Y-82930000D01*
X97730000Y-82930000D02*
X91730000Y-82930000D01*
X88672929Y-82170000D02*
X89070000Y-82170000D01*
X88672929Y-82930000D02*
X89070000Y-82930000D01*
X86360000Y-64770000D02*
X86360000Y-63500000D01*
X86360000Y-63500000D02*
X87630000Y-63500000D01*
X53440000Y-38635000D02*
X53440000Y-41375000D01*
X48200000Y-38635000D02*
X48200000Y-41375000D01*
X48200000Y-41375000D02*
X53440000Y-41375000D01*
X48200000Y-38635000D02*
X53440000Y-38635000D01*
X55145000Y-38635000D02*
X60385000Y-38635000D01*
X55145000Y-41375000D02*
X60385000Y-41375000D01*
X55145000Y-38635000D02*
X55145000Y-41375000D01*
X60385000Y-38635000D02*
X60385000Y-41375000D01*
X88960000Y-57150000D02*
X86300000Y-57150000D01*
X88960000Y-57150000D02*
X88960000Y-54550000D01*
X88960000Y-54550000D02*
X86300000Y-54550000D01*
X86300000Y-57150000D02*
X86300000Y-54550000D01*
X86300000Y-59750000D02*
X86300000Y-58420000D01*
X87630000Y-59750000D02*
X86300000Y-59750000D01*
X51125000Y-32050000D02*
X57525000Y-32050000D01*
X51125000Y-37100000D02*
X57525000Y-37100000D01*
X51125000Y-37100000D02*
G75*
G02X51125000Y-32050000I0J2525000D01*
G01*
X57525000Y-37100000D02*
G75*
G03X57525000Y-32050000I0J2525000D01*
G01*
X8355000Y-13985000D02*
G75*
G03X7605000Y-13235000I-750000J0D01*
G01*
X7605000Y-26135000D02*
G75*
G03X8355000Y-25385000I0J750000D01*
G01*
X-4545000Y-25385000D02*
G75*
G03X-3795000Y-26135000I750000J0D01*
G01*
X-4545000Y-13235000D02*
X-4545000Y-25385000D01*
X-3795000Y-26135000D02*
X7605000Y-26135000D01*
X8355000Y-25385000D02*
X8355000Y-13985000D01*
X7605000Y-13235000D02*
X-4545000Y-13235000D01*
D13*
X-5143334Y7557620D02*
X-5476667Y8033810D01*
X-5714762Y7557620D02*
X-5714762Y8557620D01*
X-5333810Y8557620D01*
X-5238572Y8510000D01*
X-5190953Y8462381D01*
X-5143334Y8367143D01*
X-5143334Y8224286D01*
X-5190953Y8129048D01*
X-5238572Y8081429D01*
X-5333810Y8033810D01*
X-5714762Y8033810D01*
X-4714762Y8081429D02*
X-4381429Y8081429D01*
X-4238572Y7557620D02*
X-4714762Y7557620D01*
X-4714762Y8557620D01*
X-4238572Y8557620D01*
X-3476667Y8081429D02*
X-3810000Y8081429D01*
X-3810000Y7557620D02*
X-3810000Y8557620D01*
X-3333810Y8557620D01*
X-2810000Y8557620D02*
X-2810000Y8319524D01*
X-3048096Y8414762D02*
X-2810000Y8319524D01*
X-2571905Y8414762D01*
X-2952858Y8129048D02*
X-2810000Y8319524D01*
X-2667143Y8129048D01*
X-2048096Y8557620D02*
X-2048096Y8319524D01*
X-2286191Y8414762D02*
X-2048096Y8319524D01*
X-1810000Y8414762D01*
X-2190953Y8129048D02*
X-2048096Y8319524D01*
X-1905239Y8129048D01*
X-5143334Y-85152380D02*
X-5476667Y-84676190D01*
X-5714762Y-85152380D02*
X-5714762Y-84152380D01*
X-5333810Y-84152380D01*
X-5238572Y-84200000D01*
X-5190953Y-84247619D01*
X-5143334Y-84342857D01*
X-5143334Y-84485714D01*
X-5190953Y-84580952D01*
X-5238572Y-84628571D01*
X-5333810Y-84676190D01*
X-5714762Y-84676190D01*
X-4714762Y-84628571D02*
X-4381429Y-84628571D01*
X-4238572Y-85152380D02*
X-4714762Y-85152380D01*
X-4714762Y-84152380D01*
X-4238572Y-84152380D01*
X-3476667Y-84628571D02*
X-3810000Y-84628571D01*
X-3810000Y-85152380D02*
X-3810000Y-84152380D01*
X-3333810Y-84152380D01*
X-2810000Y-84152380D02*
X-2810000Y-84390476D01*
X-3048096Y-84295238D02*
X-2810000Y-84390476D01*
X-2571905Y-84295238D01*
X-2952858Y-84580952D02*
X-2810000Y-84390476D01*
X-2667143Y-84580952D01*
X-2048096Y-84152380D02*
X-2048096Y-84390476D01*
X-2286191Y-84295238D02*
X-2048096Y-84390476D01*
X-1810000Y-84295238D01*
X-2190953Y-84580952D02*
X-2048096Y-84390476D01*
X-1905239Y-84580952D01*
X87566666Y7557620D02*
X87233333Y8033810D01*
X86995238Y7557620D02*
X86995238Y8557620D01*
X87376190Y8557620D01*
X87471428Y8510000D01*
X87519047Y8462381D01*
X87566666Y8367143D01*
X87566666Y8224286D01*
X87519047Y8129048D01*
X87471428Y8081429D01*
X87376190Y8033810D01*
X86995238Y8033810D01*
X87995238Y8081429D02*
X88328571Y8081429D01*
X88471428Y7557620D02*
X87995238Y7557620D01*
X87995238Y8557620D01*
X88471428Y8557620D01*
X89233333Y8081429D02*
X88900000Y8081429D01*
X88900000Y7557620D02*
X88900000Y8557620D01*
X89376190Y8557620D01*
X89900000Y8557620D02*
X89900000Y8319524D01*
X89661904Y8414762D02*
X89900000Y8319524D01*
X90138095Y8414762D01*
X89757142Y8129048D02*
X89900000Y8319524D01*
X90042857Y8129048D01*
X90661904Y8557620D02*
X90661904Y8319524D01*
X90423809Y8414762D02*
X90661904Y8319524D01*
X90900000Y8414762D01*
X90519047Y8129048D02*
X90661904Y8319524D01*
X90804761Y8129048D01*
X87566666Y-85152380D02*
X87233333Y-84676190D01*
X86995238Y-85152380D02*
X86995238Y-84152380D01*
X87376190Y-84152380D01*
X87471428Y-84200000D01*
X87519047Y-84247619D01*
X87566666Y-84342857D01*
X87566666Y-84485714D01*
X87519047Y-84580952D01*
X87471428Y-84628571D01*
X87376190Y-84676190D01*
X86995238Y-84676190D01*
X87995238Y-84628571D02*
X88328571Y-84628571D01*
X88471428Y-85152380D02*
X87995238Y-85152380D01*
X87995238Y-84152380D01*
X88471428Y-84152380D01*
X89233333Y-84628571D02*
X88900000Y-84628571D01*
X88900000Y-85152380D02*
X88900000Y-84152380D01*
X89376190Y-84152380D01*
X89900000Y-84152380D02*
X89900000Y-84390476D01*
X89661904Y-84295238D02*
X89900000Y-84390476D01*
X90138095Y-84295238D01*
X89757142Y-84580952D02*
X89900000Y-84390476D01*
X90042857Y-84580952D01*
X90661904Y-84152380D02*
X90661904Y-84390476D01*
X90423809Y-84295238D02*
X90661904Y-84390476D01*
X90900000Y-84295238D01*
X90519047Y-84580952D02*
X90661904Y-84390476D01*
X90804761Y-84580952D01*
X74112380Y-92983333D02*
X74826666Y-92983333D01*
X74969523Y-93030952D01*
X75064761Y-93126190D01*
X75112380Y-93269047D01*
X75112380Y-93364285D01*
X74112380Y-92602380D02*
X74112380Y-91935714D01*
X75112380Y-92364285D01*
X91681666Y-35282380D02*
X91681666Y-35996666D01*
X91634047Y-36139523D01*
X91538809Y-36234761D01*
X91395952Y-36282380D01*
X91300714Y-36282380D01*
X92110238Y-35377619D02*
X92157857Y-35330000D01*
X92253095Y-35282380D01*
X92491190Y-35282380D01*
X92586428Y-35330000D01*
X92634047Y-35377619D01*
X92681666Y-35472857D01*
X92681666Y-35568095D01*
X92634047Y-35710952D01*
X92062619Y-36282380D01*
X92681666Y-36282380D01*
X82986666Y1607620D02*
X82986666Y893334D01*
X82939047Y750477D01*
X82843809Y655239D01*
X82700952Y607620D01*
X82605714Y607620D01*
X83462857Y607620D02*
X83462857Y1607620D01*
X83843809Y1607620D01*
X83939047Y1560000D01*
X83986666Y1512381D01*
X84034285Y1417143D01*
X84034285Y1274286D01*
X83986666Y1179048D01*
X83939047Y1131429D01*
X83843809Y1083810D01*
X83462857Y1083810D01*
X84415238Y1512381D02*
X84462857Y1560000D01*
X84558095Y1607620D01*
X84796190Y1607620D01*
X84891428Y1560000D01*
X84939047Y1512381D01*
X84986666Y1417143D01*
X84986666Y1321905D01*
X84939047Y1179048D01*
X84367619Y607620D01*
X84986666Y607620D01*
X4278333Y-43537142D02*
X4230714Y-43584761D01*
X4087857Y-43632380D01*
X3992619Y-43632380D01*
X3849761Y-43584761D01*
X3754523Y-43489523D01*
X3706904Y-43394285D01*
X3659285Y-43203809D01*
X3659285Y-43060952D01*
X3706904Y-42870476D01*
X3754523Y-42775238D01*
X3849761Y-42680000D01*
X3992619Y-42632380D01*
X4087857Y-42632380D01*
X4230714Y-42680000D01*
X4278333Y-42727619D01*
X4849761Y-43060952D02*
X4754523Y-43013333D01*
X4706904Y-42965714D01*
X4659285Y-42870476D01*
X4659285Y-42822857D01*
X4706904Y-42727619D01*
X4754523Y-42680000D01*
X4849761Y-42632380D01*
X5040238Y-42632380D01*
X5135476Y-42680000D01*
X5183095Y-42727619D01*
X5230714Y-42822857D01*
X5230714Y-42870476D01*
X5183095Y-42965714D01*
X5135476Y-43013333D01*
X5040238Y-43060952D01*
X4849761Y-43060952D01*
X4754523Y-43108571D01*
X4706904Y-43156190D01*
X4659285Y-43251428D01*
X4659285Y-43441904D01*
X4706904Y-43537142D01*
X4754523Y-43584761D01*
X4849761Y-43632380D01*
X5040238Y-43632380D01*
X5135476Y-43584761D01*
X5183095Y-43537142D01*
X5230714Y-43441904D01*
X5230714Y-43251428D01*
X5183095Y-43156190D01*
X5135476Y-43108571D01*
X5040238Y-43060952D01*
X33468333Y-18177142D02*
X33420714Y-18224761D01*
X33277857Y-18272380D01*
X33182619Y-18272380D01*
X33039761Y-18224761D01*
X32944523Y-18129523D01*
X32896904Y-18034285D01*
X32849285Y-17843809D01*
X32849285Y-17700952D01*
X32896904Y-17510476D01*
X32944523Y-17415238D01*
X33039761Y-17320000D01*
X33182619Y-17272380D01*
X33277857Y-17272380D01*
X33420714Y-17320000D01*
X33468333Y-17367619D01*
X33801666Y-17272380D02*
X34468333Y-17272380D01*
X34039761Y-18272380D01*
X53828333Y-43537142D02*
X53780714Y-43584761D01*
X53637857Y-43632380D01*
X53542619Y-43632380D01*
X53399761Y-43584761D01*
X53304523Y-43489523D01*
X53256904Y-43394285D01*
X53209285Y-43203809D01*
X53209285Y-43060952D01*
X53256904Y-42870476D01*
X53304523Y-42775238D01*
X53399761Y-42680000D01*
X53542619Y-42632380D01*
X53637857Y-42632380D01*
X53780714Y-42680000D01*
X53828333Y-42727619D01*
X54685476Y-42632380D02*
X54495000Y-42632380D01*
X54399761Y-42680000D01*
X54352142Y-42727619D01*
X54256904Y-42870476D01*
X54209285Y-43060952D01*
X54209285Y-43441904D01*
X54256904Y-43537142D01*
X54304523Y-43584761D01*
X54399761Y-43632380D01*
X54590238Y-43632380D01*
X54685476Y-43584761D01*
X54733095Y-43537142D01*
X54780714Y-43441904D01*
X54780714Y-43203809D01*
X54733095Y-43108571D01*
X54685476Y-43060952D01*
X54590238Y-43013333D01*
X54399761Y-43013333D01*
X54304523Y-43060952D01*
X54256904Y-43108571D01*
X54209285Y-43203809D01*
X74128333Y-27027142D02*
X74080714Y-27074761D01*
X73937857Y-27122380D01*
X73842619Y-27122380D01*
X73699761Y-27074761D01*
X73604523Y-26979523D01*
X73556904Y-26884285D01*
X73509285Y-26693809D01*
X73509285Y-26550952D01*
X73556904Y-26360476D01*
X73604523Y-26265238D01*
X73699761Y-26170000D01*
X73842619Y-26122380D01*
X73937857Y-26122380D01*
X74080714Y-26170000D01*
X74128333Y-26217619D01*
X75033095Y-26122380D02*
X74556904Y-26122380D01*
X74509285Y-26598571D01*
X74556904Y-26550952D01*
X74652142Y-26503333D01*
X74890238Y-26503333D01*
X74985476Y-26550952D01*
X75033095Y-26598571D01*
X75080714Y-26693809D01*
X75080714Y-26931904D01*
X75033095Y-27027142D01*
X74985476Y-27074761D01*
X74890238Y-27122380D01*
X74652142Y-27122380D01*
X74556904Y-27074761D01*
X74509285Y-27027142D01*
X73473333Y5317858D02*
X73425714Y5270239D01*
X73282857Y5222620D01*
X73187619Y5222620D01*
X73044761Y5270239D01*
X72949523Y5365477D01*
X72901904Y5460715D01*
X72854285Y5651191D01*
X72854285Y5794048D01*
X72901904Y5984524D01*
X72949523Y6079762D01*
X73044761Y6175000D01*
X73187619Y6222620D01*
X73282857Y6222620D01*
X73425714Y6175000D01*
X73473333Y6127381D01*
X74330476Y5889286D02*
X74330476Y5222620D01*
X74092380Y6270239D02*
X73854285Y5555953D01*
X74473333Y5555953D01*
X57638333Y5357858D02*
X57590714Y5310239D01*
X57447857Y5262620D01*
X57352619Y5262620D01*
X57209761Y5310239D01*
X57114523Y5405477D01*
X57066904Y5500715D01*
X57019285Y5691191D01*
X57019285Y5834048D01*
X57066904Y6024524D01*
X57114523Y6119762D01*
X57209761Y6215000D01*
X57352619Y6262620D01*
X57447857Y6262620D01*
X57590714Y6215000D01*
X57638333Y6167381D01*
X57971666Y6262620D02*
X58590714Y6262620D01*
X58257380Y5881667D01*
X58400238Y5881667D01*
X58495476Y5834048D01*
X58543095Y5786429D01*
X58590714Y5691191D01*
X58590714Y5453096D01*
X58543095Y5357858D01*
X58495476Y5310239D01*
X58400238Y5262620D01*
X58114523Y5262620D01*
X58019285Y5310239D01*
X57971666Y5357858D01*
X57023095Y972620D02*
X57023095Y163096D01*
X57070714Y67858D01*
X57118333Y20239D01*
X57213571Y-27380D01*
X57404047Y-27380D01*
X57499285Y20239D01*
X57546904Y67858D01*
X57594523Y163096D01*
X57594523Y972620D01*
X58546904Y972620D02*
X58070714Y972620D01*
X58023095Y496429D01*
X58070714Y544048D01*
X58165952Y591667D01*
X58404047Y591667D01*
X58499285Y544048D01*
X58546904Y496429D01*
X58594523Y401191D01*
X58594523Y163096D01*
X58546904Y67858D01*
X58499285Y20239D01*
X58404047Y-27380D01*
X58165952Y-27380D01*
X58070714Y20239D01*
X58023095Y67858D01*
X3683095Y-47287380D02*
X3683095Y-48096904D01*
X3730714Y-48192142D01*
X3778333Y-48239761D01*
X3873571Y-48287380D01*
X4064047Y-48287380D01*
X4159285Y-48239761D01*
X4206904Y-48192142D01*
X4254523Y-48096904D01*
X4254523Y-47287380D01*
X5159285Y-47620714D02*
X5159285Y-48287380D01*
X4921190Y-47239761D02*
X4683095Y-47954047D01*
X5302142Y-47954047D01*
X53213095Y-47287380D02*
X53213095Y-48096904D01*
X53260714Y-48192142D01*
X53308333Y-48239761D01*
X53403571Y-48287380D01*
X53594047Y-48287380D01*
X53689285Y-48239761D01*
X53736904Y-48192142D01*
X53784523Y-48096904D01*
X53784523Y-47287380D01*
X54784523Y-48287380D02*
X54213095Y-48287380D01*
X54498809Y-48287380D02*
X54498809Y-47287380D01*
X54403571Y-47430238D01*
X54308333Y-47525476D01*
X54213095Y-47573095D01*
X73533095Y-32047380D02*
X73533095Y-32856904D01*
X73580714Y-32952142D01*
X73628333Y-32999761D01*
X73723571Y-33047380D01*
X73914047Y-33047380D01*
X74009285Y-32999761D01*
X74056904Y-32952142D01*
X74104523Y-32856904D01*
X74104523Y-32047380D01*
X74485476Y-32047380D02*
X75152142Y-32047380D01*
X74723571Y-33047380D01*
X32893095Y-21887380D02*
X32893095Y-22696904D01*
X32940714Y-22792142D01*
X32988333Y-22839761D01*
X33083571Y-22887380D01*
X33274047Y-22887380D01*
X33369285Y-22839761D01*
X33416904Y-22792142D01*
X33464523Y-22696904D01*
X33464523Y-21887380D01*
X33893095Y-21982619D02*
X33940714Y-21935000D01*
X34035952Y-21887380D01*
X34274047Y-21887380D01*
X34369285Y-21935000D01*
X34416904Y-21982619D01*
X34464523Y-22077857D01*
X34464523Y-22173095D01*
X34416904Y-22315952D01*
X33845476Y-22887380D01*
X34464523Y-22887380D01*
X72898095Y972620D02*
X72898095Y163096D01*
X72945714Y67858D01*
X72993333Y20239D01*
X73088571Y-27380D01*
X73279047Y-27380D01*
X73374285Y20239D01*
X73421904Y67858D01*
X73469523Y163096D01*
X73469523Y972620D01*
X74374285Y972620D02*
X74183809Y972620D01*
X74088571Y925000D01*
X74040952Y877381D01*
X73945714Y734524D01*
X73898095Y544048D01*
X73898095Y163096D01*
X73945714Y67858D01*
X73993333Y20239D01*
X74088571Y-27380D01*
X74279047Y-27380D01*
X74374285Y20239D01*
X74421904Y67858D01*
X74469523Y163096D01*
X74469523Y401191D01*
X74421904Y496429D01*
X74374285Y544048D01*
X74279047Y591667D01*
X74088571Y591667D01*
X73993333Y544048D01*
X73945714Y496429D01*
X73898095Y401191D01*
X-4973334Y-9647380D02*
X-4973334Y-10361666D01*
X-5020953Y-10504523D01*
X-5116191Y-10599761D01*
X-5259048Y-10647380D01*
X-5354286Y-10647380D01*
X-3973334Y-10647380D02*
X-4544762Y-10647380D01*
X-4259048Y-10647380D02*
X-4259048Y-9647380D01*
X-4354286Y-9790238D01*
X-4449524Y-9885476D01*
X-4544762Y-9933095D01*
X82986666Y-16807380D02*
X82986666Y-17521666D01*
X82939047Y-17664523D01*
X82843809Y-17759761D01*
X82700952Y-17807380D01*
X82605714Y-17807380D01*
X83462857Y-17807380D02*
X83462857Y-16807380D01*
X83843809Y-16807380D01*
X83939047Y-16855000D01*
X83986666Y-16902619D01*
X84034285Y-16997857D01*
X84034285Y-17140714D01*
X83986666Y-17235952D01*
X83939047Y-17283571D01*
X83843809Y-17331190D01*
X83462857Y-17331190D01*
X84986666Y-17807380D02*
X84415238Y-17807380D01*
X84700952Y-17807380D02*
X84700952Y-16807380D01*
X84605714Y-16950238D01*
X84510476Y-17045476D01*
X84415238Y-17093095D01*
X26543095Y5887620D02*
X26543095Y5078096D01*
X26590714Y4982858D01*
X26638333Y4935239D01*
X26733571Y4887620D01*
X26924047Y4887620D01*
X27019285Y4935239D01*
X27066904Y4982858D01*
X27114523Y5078096D01*
X27114523Y5887620D01*
X27495476Y5887620D02*
X28114523Y5887620D01*
X27781190Y5506667D01*
X27924047Y5506667D01*
X28019285Y5459048D01*
X28066904Y5411429D01*
X28114523Y5316191D01*
X28114523Y5078096D01*
X28066904Y4982858D01*
X28019285Y4935239D01*
X27924047Y4887620D01*
X27638333Y4887620D01*
X27543095Y4935239D01*
X27495476Y4982858D01*
X8807380Y-24304523D02*
X9807380Y-23637857D01*
X8807380Y-23637857D02*
X9807380Y-24304523D01*
X9807380Y-22733095D02*
X9807380Y-23304523D01*
X9807380Y-23018809D02*
X8807380Y-23018809D01*
X8950238Y-23114047D01*
X9045476Y-23209285D01*
X9093095Y-23304523D01*
X15688333Y-9247142D02*
X15640714Y-9294761D01*
X15497857Y-9342380D01*
X15402619Y-9342380D01*
X15259761Y-9294761D01*
X15164523Y-9199523D01*
X15116904Y-9104285D01*
X15069285Y-8913809D01*
X15069285Y-8770952D01*
X15116904Y-8580476D01*
X15164523Y-8485238D01*
X15259761Y-8390000D01*
X15402619Y-8342380D01*
X15497857Y-8342380D01*
X15640714Y-8390000D01*
X15688333Y-8437619D01*
X16640714Y-9342380D02*
X16069285Y-9342380D01*
X16355000Y-9342380D02*
X16355000Y-8342380D01*
X16259761Y-8485238D01*
X16164523Y-8580476D01*
X16069285Y-8628095D01*
X37913333Y-8672142D02*
X37865714Y-8719761D01*
X37722857Y-8767380D01*
X37627619Y-8767380D01*
X37484761Y-8719761D01*
X37389523Y-8624523D01*
X37341904Y-8529285D01*
X37294285Y-8338809D01*
X37294285Y-8195952D01*
X37341904Y-8005476D01*
X37389523Y-7910238D01*
X37484761Y-7815000D01*
X37627619Y-7767380D01*
X37722857Y-7767380D01*
X37865714Y-7815000D01*
X37913333Y-7862619D01*
X38294285Y-7862619D02*
X38341904Y-7815000D01*
X38437142Y-7767380D01*
X38675238Y-7767380D01*
X38770476Y-7815000D01*
X38818095Y-7862619D01*
X38865714Y-7957857D01*
X38865714Y-8053095D01*
X38818095Y-8195952D01*
X38246666Y-8767380D01*
X38865714Y-8767380D01*
X10767380Y-5183095D02*
X9767380Y-5183095D01*
X9767380Y-4945000D01*
X9815000Y-4802142D01*
X9910238Y-4706904D01*
X10005476Y-4659285D01*
X10195952Y-4611666D01*
X10338809Y-4611666D01*
X10529285Y-4659285D01*
X10624523Y-4706904D01*
X10719761Y-4802142D01*
X10767380Y-4945000D01*
X10767380Y-5183095D01*
X10767380Y-3659285D02*
X10767380Y-4230714D01*
X10767380Y-3945000D02*
X9767380Y-3945000D01*
X9910238Y-4040238D01*
X10005476Y-4135476D01*
X10053095Y-4230714D01*
X10507380Y373096D02*
X9507380Y373096D01*
X10507380Y944524D02*
X9935952Y515953D01*
X9507380Y944524D02*
X10078809Y373096D01*
X44981904Y5547620D02*
X44981904Y6547620D01*
X45220000Y6547620D01*
X45362857Y6500000D01*
X45458095Y6404762D01*
X45505714Y6309524D01*
X45553333Y6119048D01*
X45553333Y5976191D01*
X45505714Y5785715D01*
X45458095Y5690477D01*
X45362857Y5595239D01*
X45220000Y5547620D01*
X44981904Y5547620D01*
X45934285Y6452381D02*
X45981904Y6500000D01*
X46077142Y6547620D01*
X46315238Y6547620D01*
X46410476Y6500000D01*
X46458095Y6452381D01*
X46505714Y6357143D01*
X46505714Y6261905D01*
X46458095Y6119048D01*
X45886666Y5547620D01*
X46505714Y5547620D01*
X36242380Y-1436666D02*
X35766190Y-1770000D01*
X36242380Y-2008095D02*
X35242380Y-2008095D01*
X35242380Y-1627142D01*
X35290000Y-1531904D01*
X35337619Y-1484285D01*
X35432857Y-1436666D01*
X35575714Y-1436666D01*
X35670952Y-1484285D01*
X35718571Y-1531904D01*
X35766190Y-1627142D01*
X35766190Y-2008095D01*
X36242380Y-484285D02*
X36242380Y-1055714D01*
X36242380Y-770000D02*
X35242380Y-770000D01*
X35385238Y-865238D01*
X35480476Y-960476D01*
X35528095Y-1055714D01*
X48572380Y-14025476D02*
X48096190Y-14358809D01*
X48572380Y-14596904D02*
X47572380Y-14596904D01*
X47572380Y-14215952D01*
X47620000Y-14120714D01*
X47667619Y-14073095D01*
X47762857Y-14025476D01*
X47905714Y-14025476D01*
X48000952Y-14073095D01*
X48048571Y-14120714D01*
X48096190Y-14215952D01*
X48096190Y-14596904D01*
X48572380Y-13596904D02*
X47572380Y-13596904D01*
X48572380Y-13025476D01*
X47572380Y-13025476D01*
X48572380Y-12025476D02*
X48572380Y-12596904D01*
X48572380Y-12311190D02*
X47572380Y-12311190D01*
X47715238Y-12406428D01*
X47810476Y-12501666D01*
X47858095Y-12596904D01*
X72401666Y-14914761D02*
X72544523Y-14962380D01*
X72782619Y-14962380D01*
X72877857Y-14914761D01*
X72925476Y-14867142D01*
X72973095Y-14771904D01*
X72973095Y-14676666D01*
X72925476Y-14581428D01*
X72877857Y-14533809D01*
X72782619Y-14486190D01*
X72592142Y-14438571D01*
X72496904Y-14390952D01*
X72449285Y-14343333D01*
X72401666Y-14248095D01*
X72401666Y-14152857D01*
X72449285Y-14057619D01*
X72496904Y-14010000D01*
X72592142Y-13962380D01*
X72830238Y-13962380D01*
X72973095Y-14010000D01*
X73306428Y-13962380D02*
X73544523Y-14962380D01*
X73735000Y-14248095D01*
X73925476Y-14962380D01*
X74163571Y-13962380D01*
X74496904Y-14057619D02*
X74544523Y-14010000D01*
X74639761Y-13962380D01*
X74877857Y-13962380D01*
X74973095Y-14010000D01*
X75020714Y-14057619D01*
X75068333Y-14152857D01*
X75068333Y-14248095D01*
X75020714Y-14390952D01*
X74449285Y-14962380D01*
X75068333Y-14962380D01*
X17081666Y-5484761D02*
X17224523Y-5532380D01*
X17462619Y-5532380D01*
X17557857Y-5484761D01*
X17605476Y-5437142D01*
X17653095Y-5341904D01*
X17653095Y-5246666D01*
X17605476Y-5151428D01*
X17557857Y-5103809D01*
X17462619Y-5056190D01*
X17272142Y-5008571D01*
X17176904Y-4960952D01*
X17129285Y-4913333D01*
X17081666Y-4818095D01*
X17081666Y-4722857D01*
X17129285Y-4627619D01*
X17176904Y-4580000D01*
X17272142Y-4532380D01*
X17510238Y-4532380D01*
X17653095Y-4580000D01*
X17986428Y-4532380D02*
X18224523Y-5532380D01*
X18415000Y-4818095D01*
X18605476Y-5532380D01*
X18843571Y-4532380D01*
X19748333Y-5532380D02*
X19176904Y-5532380D01*
X19462619Y-5532380D02*
X19462619Y-4532380D01*
X19367380Y-4675238D01*
X19272142Y-4770476D01*
X19176904Y-4818095D01*
X11012380Y-23693333D02*
X11726666Y-23693333D01*
X11869523Y-23740952D01*
X11964761Y-23836190D01*
X12012380Y-23979047D01*
X12012380Y-24074285D01*
X12012380Y-23217142D02*
X11012380Y-23217142D01*
X11012380Y-22836190D01*
X11060000Y-22740952D01*
X11107619Y-22693333D01*
X11202857Y-22645714D01*
X11345714Y-22645714D01*
X11440952Y-22693333D01*
X11488571Y-22740952D01*
X11536190Y-22836190D01*
X11536190Y-23217142D01*
X11012380Y-22312380D02*
X11012380Y-21693333D01*
X11393333Y-22026666D01*
X11393333Y-21883809D01*
X11440952Y-21788571D01*
X11488571Y-21740952D01*
X11583809Y-21693333D01*
X11821904Y-21693333D01*
X11917142Y-21740952D01*
X11964761Y-21788571D01*
X12012380Y-21883809D01*
X12012380Y-22169523D01*
X11964761Y-22264761D01*
X11917142Y-22312380D01*
X11012380Y-27503333D02*
X11726666Y-27503333D01*
X11869523Y-27550952D01*
X11964761Y-27646190D01*
X12012380Y-27789047D01*
X12012380Y-27884285D01*
X12012380Y-27027142D02*
X11012380Y-27027142D01*
X11012380Y-26646190D01*
X11060000Y-26550952D01*
X11107619Y-26503333D01*
X11202857Y-26455714D01*
X11345714Y-26455714D01*
X11440952Y-26503333D01*
X11488571Y-26550952D01*
X11536190Y-26646190D01*
X11536190Y-27027142D01*
X11345714Y-25598571D02*
X12012380Y-25598571D01*
X10964761Y-25836666D02*
X11679047Y-26074761D01*
X11679047Y-25455714D01*
X91681666Y-16867380D02*
X91681666Y-17581666D01*
X91634047Y-17724523D01*
X91538809Y-17819761D01*
X91395952Y-17867380D01*
X91300714Y-17867380D01*
X92586428Y-17200714D02*
X92586428Y-17867380D01*
X92348333Y-16819761D02*
X92110238Y-17534047D01*
X92729285Y-17534047D01*
X91681666Y1547620D02*
X91681666Y833334D01*
X91634047Y690477D01*
X91538809Y595239D01*
X91395952Y547620D01*
X91300714Y547620D01*
X92634047Y1547620D02*
X92157857Y1547620D01*
X92110238Y1071429D01*
X92157857Y1119048D01*
X92253095Y1166667D01*
X92491190Y1166667D01*
X92586428Y1119048D01*
X92634047Y1071429D01*
X92681666Y976191D01*
X92681666Y738096D01*
X92634047Y642858D01*
X92586428Y595239D01*
X92491190Y547620D01*
X92253095Y547620D01*
X92157857Y595239D01*
X92110238Y642858D01*
X91681666Y-61952380D02*
X91681666Y-62666666D01*
X91634047Y-62809523D01*
X91538809Y-62904761D01*
X91395952Y-62952380D01*
X91300714Y-62952380D01*
X92062619Y-61952380D02*
X92681666Y-61952380D01*
X92348333Y-62333333D01*
X92491190Y-62333333D01*
X92586428Y-62380952D01*
X92634047Y-62428571D01*
X92681666Y-62523809D01*
X92681666Y-62761904D01*
X92634047Y-62857142D01*
X92586428Y-62904761D01*
X92491190Y-62952380D01*
X92205476Y-62952380D01*
X92110238Y-62904761D01*
X92062619Y-62857142D01*
X50177142Y-37862142D02*
X50129523Y-37909761D01*
X49986666Y-37957380D01*
X49891428Y-37957380D01*
X49748571Y-37909761D01*
X49653333Y-37814523D01*
X49605714Y-37719285D01*
X49558095Y-37528809D01*
X49558095Y-37385952D01*
X49605714Y-37195476D01*
X49653333Y-37100238D01*
X49748571Y-37005000D01*
X49891428Y-36957380D01*
X49986666Y-36957380D01*
X50129523Y-37005000D01*
X50177142Y-37052619D01*
X51129523Y-37957380D02*
X50558095Y-37957380D01*
X50843809Y-37957380D02*
X50843809Y-36957380D01*
X50748571Y-37100238D01*
X50653333Y-37195476D01*
X50558095Y-37243095D01*
X51748571Y-36957380D02*
X51843809Y-36957380D01*
X51939047Y-37005000D01*
X51986666Y-37052619D01*
X52034285Y-37147857D01*
X52081904Y-37338333D01*
X52081904Y-37576428D01*
X52034285Y-37766904D01*
X51986666Y-37862142D01*
X51939047Y-37909761D01*
X51843809Y-37957380D01*
X51748571Y-37957380D01*
X51653333Y-37909761D01*
X51605714Y-37862142D01*
X51558095Y-37766904D01*
X51510476Y-37576428D01*
X51510476Y-37338333D01*
X51558095Y-37147857D01*
X51605714Y-37052619D01*
X51653333Y-37005000D01*
X51748571Y-36957380D01*
X57122142Y-37862142D02*
X57074523Y-37909761D01*
X56931666Y-37957380D01*
X56836428Y-37957380D01*
X56693571Y-37909761D01*
X56598333Y-37814523D01*
X56550714Y-37719285D01*
X56503095Y-37528809D01*
X56503095Y-37385952D01*
X56550714Y-37195476D01*
X56598333Y-37100238D01*
X56693571Y-37005000D01*
X56836428Y-36957380D01*
X56931666Y-36957380D01*
X57074523Y-37005000D01*
X57122142Y-37052619D01*
X58074523Y-37957380D02*
X57503095Y-37957380D01*
X57788809Y-37957380D02*
X57788809Y-36957380D01*
X57693571Y-37100238D01*
X57598333Y-37195476D01*
X57503095Y-37243095D01*
X59026904Y-37957380D02*
X58455476Y-37957380D01*
X58741190Y-37957380D02*
X58741190Y-36957380D01*
X58645952Y-37100238D01*
X58550714Y-37195476D01*
X58455476Y-37243095D01*
X84542380Y-57983333D02*
X85256666Y-57983333D01*
X85399523Y-58030952D01*
X85494761Y-58126190D01*
X85542380Y-58269047D01*
X85542380Y-58364285D01*
X85542380Y-57507142D02*
X84542380Y-57507142D01*
X84542380Y-57126190D01*
X84590000Y-57030952D01*
X84637619Y-56983333D01*
X84732857Y-56935714D01*
X84875714Y-56935714D01*
X84970952Y-56983333D01*
X85018571Y-57030952D01*
X85066190Y-57126190D01*
X85066190Y-57507142D01*
X84542380Y-56030952D02*
X84542380Y-56507142D01*
X85018571Y-56554761D01*
X84970952Y-56507142D01*
X84923333Y-56411904D01*
X84923333Y-56173809D01*
X84970952Y-56078571D01*
X85018571Y-56030952D01*
X85113809Y-55983333D01*
X85351904Y-55983333D01*
X85447142Y-56030952D01*
X85494761Y-56078571D01*
X85542380Y-56173809D01*
X85542380Y-56411904D01*
X85494761Y-56507142D01*
X85447142Y-56554761D01*
X53848809Y-31026190D02*
X53848809Y-31502380D01*
X53515476Y-30502380D02*
X53848809Y-31026190D01*
X54182142Y-30502380D01*
X55039285Y-31502380D02*
X54467857Y-31502380D01*
X54753571Y-31502380D02*
X54753571Y-30502380D01*
X54658333Y-30645238D01*
X54563095Y-30740476D01*
X54467857Y-30788095D01*
X9807380Y-21018333D02*
X9331190Y-21351666D01*
X9807380Y-21589761D02*
X8807380Y-21589761D01*
X8807380Y-21208809D01*
X8855000Y-21113571D01*
X8902619Y-21065952D01*
X8997857Y-21018333D01*
X9140714Y-21018333D01*
X9235952Y-21065952D01*
X9283571Y-21113571D01*
X9331190Y-21208809D01*
X9331190Y-21589761D01*
X9283571Y-20589761D02*
X9283571Y-20256428D01*
X9807380Y-20113571D02*
X9807380Y-20589761D01*
X8807380Y-20589761D01*
X8807380Y-20113571D01*
X9283571Y-19351666D02*
X9283571Y-19685000D01*
X9807380Y-19685000D02*
X8807380Y-19685000D01*
X8807380Y-19208809D01*
X8807380Y-18685000D02*
X9045476Y-18685000D01*
X8950238Y-18923095D02*
X9045476Y-18685000D01*
X8950238Y-18446904D01*
X9235952Y-18827857D02*
X9045476Y-18685000D01*
X9235952Y-18542142D01*
X8807380Y-17923095D02*
X9045476Y-17923095D01*
X8950238Y-18161190D02*
X9045476Y-17923095D01*
X8950238Y-17685000D01*
X9235952Y-18065952D02*
X9045476Y-17923095D01*
X9235952Y-17780238D01*
M02*
